<svg xmlns="http://www.w3.org/2000/svg" version="1.1" xmlns:xlink="http://www.w3.org/1999/xlink" width="1000" height="1000"><g clip-path="url(#SvgjsClipPath1248)"><rect width="1000" height="1000" fill="#ffffff"></rect><g transform="matrix(3.4403670513845657,0,0,3.4403670513845657,4.587144600622537,0)"><svg xmlns="http://www.w3.org/2000/svg" version="1.1" xmlns:xlink="http://www.w3.org/1999/xlink" width="288" height="290.66666"><svg version="1.1" id="svg1" width="288" height="290.66666" viewBox="0 0 288 290.66666" xmlns="http://www.w3.org/2000/svg" xmlns:svg="http://www.w3.org/2000/svg">
  <defs id="defs1"><clipPath id="SvgjsClipPath1248"><rect width="1000" height="1000" x="0" y="0" rx="500" ry="500"></rect></clipPath></defs>
  <g id="g1">
    <path style="fill:#000000" d="m 128.00737,290.07927 c 0,-0.32306 -2.84958,-0.80103 -6.3324,-1.06215 -3.48282,-0.26111 -6.48754,-0.72579 -6.67717,-1.03262 -0.18963,-0.30682 -1.99402,-0.76392 -4.00975,-1.01577 -2.01573,-0.25185 -3.81134,-0.69474 -3.99023,-0.9842 -0.1789,-0.28946 -1.82494,-0.73255 -3.65786,-0.98464 -1.83293,-0.25209 -3.33259,-0.71182 -3.33259,-1.02161 0,-0.30979 -1.349994,-0.7657 -2.999994,-1.01314 -1.65,-0.24743 -3,-0.69198 -3,-0.98788 0,-0.2959 -0.904144,-0.73658 -2.009208,-0.97929 -1.105065,-0.24272 -3.649396,-1.31655 -5.65407,-2.38631 -2.004673,-1.06975 -4.25053,-1.945 -4.990791,-1.945 -0.740262,0 -1.345931,-0.27617 -1.345931,-0.6137 0,-0.33753 -0.9,-0.81137 -2,-1.05297 -1.1,-0.2416 -2,-0.69439 -2,-1.0062 0,-0.31181 -1.35,-1.24115 -3,-2.0652 -1.65,-0.82405 -3,-1.72126 -3,-1.9938 0,-0.27254 -0.9,-0.6932 -2,-0.9348 -1.1,-0.2416 -2,-0.72485 -2,-1.07389 0,-0.34904 -0.525,-0.82582 -1.166667,-1.05951 -1.013316,-0.36904 -2.442913,-1.43069 -6.808873,-5.05645 -1.157871,-0.96157 -3.297256,-2.28214 -4.691127,-2.89567 -1.545163,-0.68014 -22.803818,-23.0719 -23.359212,-24.60429 -0.270401,-0.74606 -0.975197,-1.7578 -1.566213,-2.2483 -0.591016,-0.4905 -1.074575,-1.23292 -1.074575,-1.64982 0,-0.4169 -0.611004,-1.13958 -1.357788,-1.60596 -0.746784,-0.46637 -1.662217,-1.51354 -2.034297,-2.32703 -0.37208,-0.81349 -1.411892,-2.67908 -2.310694,-4.14574 -0.898802,-1.46667 -1.818358,-3.19167 -2.043457,-3.83334 -0.2251,-0.64166 -0.650446,-1.16666 -0.945214,-1.16666 -0.294769,0 -0.733616,-0.9 -0.975216,-2 -0.241601,-1.1 -0.691601,-2 -1,-2 -0.3084,0 -0.7584,-0.9 -1,-2 -0.241601,-1.1 -0.691601,-2 -1,-2 -0.3084,0 -0.7584,-0.9 -1,-2 -0.241601,-1.1 -0.691601,-2 -1,-2 -0.3084,0 -0.7584,-0.9 -1,-2 -0.241601,-1.1 -0.697056,-2 -1.012122,-2 -0.315066,0 -0.7752929,-1.35 -1.0227257,-3 -0.2474328,-1.65 -0.7158146,-3 -1.0408486,-3 -0.3250339,0 -0.592819,-0.525 -0.595078,-1.16667 -0.00226,-0.64167 -0.4336368,-1.99006 -0.9586175,-2.99644 -0.5249807,-1.00638 -1.1609758,-3.25637 -1.4133225,-5 -0.2523467,-1.74362 -0.6831255,-3.47023 -0.9572861,-3.83689 -0.2741607,-0.36667 -0.7046992,-2.09167 -0.9567523,-3.83334 -0.252053,-1.74166 -0.6968525,-3.16666 -0.9884433,-3.16666 -0.2915908,0 -0.7391677,-2.775 -0.9946154,-6.16667 -0.2554477,-3.39167 -0.74849154,-6.45167 -1.09565302,-6.8 -0.7979263,-0.80062 -0.84722726,-33.03333 -0.0505255,-33.03333 0.31937244,0 0.79668692,-2.775 1.06069892,-6.16667 0.264012,-3.39166 0.752677,-6.49737 1.0859221,-6.90156 0.3332452,-0.40419 0.7986676,-2.57919 1.034272,-4.83333 0.2356044,-2.25414 0.6448576,-4.09844 0.9094514,-4.09844 0.2645939,0 0.6576693,-1.28836 0.873501,-2.86303 0.2158316,-1.57466 0.8547606,-3.74966 1.4198421,-4.83333 C 7.5368222,98.5533 8.0010098,97.14166 8.0032687,96.5 c 0.00226,-0.64167 0.2700441,-1.16667 0.595078,-1.16667 0.325034,0 0.7934158,-1.35 1.0408486,-3 0.2474328,-1.65 0.7076597,-3 1.0227257,-3 0.315066,0 0.770521,-0.9 1.012122,-2 0.2416,-1.1 0.6916,-2 1,-2 0.308399,0 0.758399,-0.9 1,-2 0.2416,-1.1 0.6916,-2 1,-2 0.308399,0 0.758399,-0.9 1,-2 0.2416,-1.1 0.6916,-2 1,-2 0.308399,0 0.758399,-0.9 1,-2 0.2416,-1.1 0.680447,-2 0.975216,-2 0.294768,0 0.720114,-0.525 0.945214,-1.16667 0.225099,-0.64166 1.144655,-2.36666 2.043457,-3.83333 0.898802,-1.46667 1.938614,-3.33225 2.310694,-4.14574 0.37208,-0.8135 1.287513,-1.86066 2.034297,-2.32704 0.746784,-0.46637 1.357788,-1.17929 1.357788,-1.58426 0,-0.40497 0.6,-1.2793 1.333334,-1.94296 0.733333,-0.66366 1.333333,-1.63326 1.333333,-2.15466 C 30.007376,54.94478 54.875038,30 56.105114,30 c 0.516276,0 1.692909,-0.825 2.614742,-1.83333 1.801747,-1.97082 3.407336,-3.12261 5.78752,-4.15176 0.825,-0.35672 1.5,-0.93217 1.5,-1.27877 0,-0.34661 0.9,-0.82787 2,-1.06947 1.1,-0.24161 2,-0.66227 2,-0.9348 0,-0.27254 1.35,-1.16975 3,-1.9938 1.65,-0.82405 3,-1.75339 3,-2.0652 0,-0.31181 0.9,-0.7646 2,-1.0062 1.1,-0.2416 2,-0.6916 2,-1 0,-0.3084 0.949336,-0.76924 2.109635,-1.02408 1.160299,-0.25485 3.410046,-1.15479 4.999437,-1.99988 1.589391,-0.84509 3.790056,-1.73425 4.890365,-1.97592 1.10031,-0.24167 2.000563,-0.6815 2.000563,-0.9774 0,-0.2959 1.35,-0.74044 3,-0.98788 1.65,-0.24743 2.999994,-0.70334 2.999994,-1.01313 0,-0.3098 1.49966,-0.76952 3.33259,-1.02161 1.83292,-0.25209 3.47896,-0.69518 3.65786,-0.98464 0.17889,-0.28947 1.9745,-0.73236 3.99023,-0.98421 2.01573,-0.25184 3.82012,-0.70894 4.00975,-1.01577 0.18963,-0.30682 3.19435,-0.7715 6.67717,-1.03262 3.48282,-0.26111 6.3324,-0.73908 6.3324,-1.06214 0,-0.32307 7.2,-0.58739 16,-0.58739 8.8,0 16,0.26432 16,0.58739 0,0.32306 2.84958,0.80103 6.3324,1.06214 3.48282,0.26112 6.48754,0.7258 6.67717,1.03262 0.18963,0.30683 1.99402,0.76393 4.00975,1.01577 2.01573,0.25185 3.81134,0.69474 3.99023,0.98421 0.1789,0.28946 1.82494,0.73255 3.65786,0.98464 1.83293,0.25209 3.33259,0.71181 3.33259,1.02161 0,0.30979 1.35,0.7657 3,1.01313 1.65,0.24744 3,0.69198 3,0.98788 0,0.2959 0.90414,0.73659 2.00921,0.9793 1.10506,0.24271 3.64939,1.31655 5.65407,2.3863 2.00467,1.06976 4.25053,1.94501 4.99079,1.94501 0.74026,0 1.34593,0.27616 1.34593,0.6137 0,0.33753 0.9,0.81137 2,1.05297 1.1,0.2416 2,0.69439 2,1.0062 0,0.31181 1.35,1.24115 3,2.0652 1.65,0.82405 3,1.72126 3,1.9938 0,0.27253 0.87494,0.68769 1.94431,0.92256 1.06937,0.23488 2.10995,0.85871 2.31241,1.38631 C 222.46654,23.56833 222.977,24 223.39844,24 c 0.42143,0 1.85585,0.91043 3.18759,2.02318 1.33174,1.11276 2.86033,2.38776 3.39688,2.83334 1.15787,0.96156 3.29726,2.28213 4.69113,2.89567 1.54516,0.68013 22.80381,23.0719 23.35921,24.60429 0.2704,0.74606 0.9752,1.75779 1.56621,2.24829 0.59102,0.4905 1.07458,1.23292 1.07458,1.64983 0,0.4169 0.57837,1.1192 1.28528,1.56067 1.24783,0.77929 2.3043,2.3819 4.29681,6.51806 0.5299,1.1 1.57211,2.77368 2.31602,3.71928 0.74391,0.94561 1.55369,2.52061 1.7995,3.5 0.24581,0.9794 0.69057,1.78072 0.98836,1.78072 0.29778,0 0.73909,0.9 0.98069,2 0.2416,1.1 0.6916,2 1,2 0.3084,0 0.7584,0.9 1,2 0.2416,1.1 0.6916,2 1,2 0.3084,0 0.7584,0.9 1,2 0.2416,1.1 0.69706,2 1.01212,2 0.31507,0 0.7753,1.35 1.02273,3 0.24743,1.65 0.71582,3 1.04085,3 0.32503,0 0.59282,0.525 0.59508,1.16667 0.002,0.64166 0.43363,1.99006 0.95861,2.99644 0.52499,1.00637 1.16098,3.25637 1.41333,5 0.25234,1.74362 0.68312,3.47022 0.95728,3.83689 0.27416,0.36667 0.7047,2.09167 0.95676,3.83333 0.25205,1.74167 0.69685,3.16667 0.98844,3.16667 0.29159,0 0.73917,2.775 0.99461,6.16667 0.25545,3.39166 0.7485,6.45166 1.09566,6.8 0.79792,0.80062 0.84722,33.03333 0.0505,33.03333 -0.31937,0 -0.79668,2.775 -1.0607,6.16666 -0.26401,3.39167 -0.75267,6.49737 -1.08592,6.90156 -0.33324,0.4042 -0.79867,2.5792 -1.03427,4.83334 -0.2356,2.25414 -0.64486,4.09844 -0.90945,4.09844 -0.2646,0 -0.65767,1.28836 -0.8735,2.86302 -0.21583,1.57467 -0.85476,3.74967 -1.41984,4.83333 -0.56509,1.08367 -1.02927,2.49531 -1.03153,3.13698 -0.002,0.64167 -0.27005,1.16667 -0.59508,1.16667 -0.32503,0 -0.79342,1.35 -1.04085,3 -0.24743,1.65 -0.70766,3 -1.02273,3 -0.31506,0 -0.77052,0.9 -1.01212,2 -0.2416,1.1 -0.6916,2 -1,2 -0.3084,0 -0.7584,0.9 -1,2 -0.2416,1.1 -0.6916,2 -1,2 -0.3084,0 -0.7584,0.9 -1,2 -0.2416,1.1 -0.68291,2 -0.98069,2 -0.29779,0 -0.74255,0.80132 -0.98836,1.78071 -0.24581,0.9794 -1.05559,2.5544 -1.7995,3.5 -0.74391,0.94561 -1.78612,2.61929 -2.31602,3.71929 -1.99251,4.13616 -3.04898,5.73877 -4.29681,6.51805 -0.70691,0.44147 -1.28528,1.13401 -1.28528,1.53898 0,0.40498 -0.6,1.27931 -1.33334,1.94297 -0.73331,0.66365 -1.33331,1.63325 -1.33331,2.15466 0,1.23389 -24.86766,26.17867 -26.09774,26.17867 -0.51627,0 -1.69291,0.825 -2.61474,1.83333 -1.80175,1.97082 -3.40734,3.12261 -5.78752,4.15176 -0.825,0.35671 -1.5,0.92348 -1.5,1.25947 0,0.33599 -0.82199,0.8172 -1.82666,1.06935 -1.00466,0.25216 -1.97966,0.65968 -2.16666,0.90561 -0.66454,0.87392 -4.63059,3.44714 -5.31302,3.44714 -0.38151,0 -0.69366,0.27617 -0.69366,0.6137 0,0.33753 -0.9,0.81137 -2,1.05297 -1.1,0.2416 -2,0.6916 -2,1 0,0.3084 -0.94934,0.76924 -2.10963,1.02408 -1.1603,0.25484 -3.41005,1.15479 -4.99944,1.99988 -1.58939,0.84508 -3.79006,1.73425 -4.89037,1.97592 -1.10031,0.24167 -2.00056,0.68149 -2.00056,0.97739 0,0.2959 -1.35,0.74045 -3,0.98788 -1.65,0.24744 -3,0.70335 -3,1.01314 0,0.30979 -1.49966,0.76952 -3.33259,1.02161 -1.83292,0.25209 -3.47896,0.69518 -3.65786,0.98464 -0.17889,0.28946 -1.9745,0.73235 -3.99023,0.9842 -2.01573,0.25185 -3.82012,0.70895 -4.00975,1.01577 -0.18963,0.30683 -3.19435,0.77151 -6.67717,1.03262 -3.48282,0.26112 -6.3324,0.73909 -6.3324,1.06215 0,0.32306 -7.2,0.58739 -16,0.58739 -8.8,0 -16,-0.26433 -16,-0.58739 z m 18.93831,-4.64613 c 0.19269,-0.31177 4.57112,-0.73394 9.72986,-0.93816 5.15874,-0.20422 9.74379,-0.65795 10.18901,-1.00828 0.44522,-0.35034 2.72878,-0.8282 5.07459,-1.06191 2.34581,-0.23371 4.59581,-0.68706 5,-1.00744 0.40419,-0.32037 2.2349,-0.79842 4.06823,-1.06232 1.83333,-0.2639 3.63333,-0.7171 4,-1.00712 0.36667,-0.29001 1.64167,-0.73577 2.83333,-0.99057 1.19167,-0.25481 2.16667,-0.70539 2.16667,-1.00129 0,-0.2959 1.35,-0.74045 3,-0.98788 1.65,-0.24743 3,-0.70766 3,-1.02272 0,-0.31507 0.8984,-0.77018 1.99645,-1.01135 2.59817,-0.57065 14.00355,-6.27269 14.00355,-7.00097 0,-0.30829 0.9,-0.75821 2,-0.99981 1.1,-0.2416 2,-0.64721 2,-0.90136 0,-0.25416 1.125,-1.04475 2.5,-1.75689 1.375,-0.71214 2.95,-1.67259 3.5,-2.13433 4.62147,-3.87989 5.89726,-4.87408 6.25468,-4.87408 1.04502,0 23.07865,-21.24116 23.07865,-22.24859 0,-0.35176 0.44223,-1.11473 0.98273,-1.69549 2.69818,-2.89915 5.01727,-5.97979 5.01727,-6.66485 0,-0.42144 0.42044,-0.92759 0.93431,-1.12478 0.51387,-0.19719 1.11305,-0.86277 1.33152,-1.47907 0.21846,-0.61631 1.14083,-2.32055 2.04971,-3.78722 0.90887,-1.46667 1.84468,-3.19167 2.07957,-3.83333 0.23489,-0.64167 0.69208,-1.16667 1.01598,-1.16667 0.3239,0 0.58891,-0.41327 0.58891,-0.91837 0,-0.5051 0.41862,-1.26579 0.93027,-1.69042 0.51164,-0.42463 1.12523,-1.81136 1.36354,-3.08163 0.2383,-1.27027 0.71968,-2.30958 1.06974,-2.30958 0.35005,0 0.64025,-0.375 0.6449,-0.83333 0.005,-0.45834 0.89563,-2.58274 1.97996,-4.7209 1.08434,-2.13815 2.16455,-4.91647 2.40047,-6.17403 0.23592,-1.25756 0.66883,-2.43473 0.96202,-2.61593 0.2932,-0.18121 0.73529,-1.52632 0.98244,-2.98914 0.24714,-1.46283 0.70591,-2.81825 1.01949,-3.01205 0.31357,-0.1938 0.77911,-1.77037 1.03452,-3.50349 0.25541,-1.73312 0.70756,-3.30945 1.00477,-3.50295 0.29721,-0.1935 0.75022,-2.4435 1.00668,-5 0.25646,-2.5565 0.72817,-4.81992 1.04824,-5.02982 0.32007,-0.20989 0.77213,-4.78489 1.00457,-10.16666 0.23244,-5.38177 0.67592,-9.78503 0.98551,-9.78503 0.30959,0 0.56288,-1.8 0.56288,-4 0,-2.2 -0.25415,-4 -0.56477,-4 -0.31063,0 -0.7429,-4.39634 -0.96062,-9.76965 -0.21771,-5.37331 -0.66892,-9.94831 -1.00268,-10.16667 -0.33376,-0.21836 -0.81667,-2.48869 -1.07313,-5.04519 -0.25646,-2.5565 -0.72169,-4.8065 -1.03385,-5 -0.31216,-0.1935 -0.78159,-1.78051 -1.04318,-3.52669 -0.26159,-1.74617 -0.7149,-3.32275 -1.00735,-3.50349 -0.29245,-0.18075 -0.73394,-1.52549 -0.98108,-2.98831 -0.24715,-1.46282 -0.72325,-2.82896 -1.05801,-3.03585 -0.33476,-0.2069 -0.60866,-0.83813 -0.60866,-1.40274 0,-1.00349 -0.82473,-3.10144 -3.39432,-8.63443 -0.69979,-1.50683 -1.27235,-3.08183 -1.27235,-3.5 0,-0.41817 -0.27616,-0.76031 -0.61369,-0.76031 -0.33754,0 -0.81137,-0.9 -1.05297,-2 -0.2416,-1.1 -0.6916,-2 -1,-2 -0.3084,0 -0.7584,-0.9 -1,-2 -0.2416,-1.1 -0.68045,-2 -0.97522,-2 -0.29477,0 -0.72812,-0.525 -0.96301,-1.16667 -0.23489,-0.64167 -1.16389,-2.36667 -2.06444,-3.83333 -0.90055,-1.46667 -1.84574,-3.11667 -2.10041,-3.66667 -0.25467,-0.55 -0.86067,-1.23991 -1.34665,-1.53313 -0.48598,-0.29322 -0.88361,-0.85361 -0.88361,-1.24532 0,-0.63955 -2.38674,-3.78435 -5.01727,-6.61081 -0.5405,-0.58076 -0.98273,-1.34373 -0.98273,-1.69549 C 251.3407,55.24115 229.30707,34 228.26205,34 c -0.35742,0 -1.63321,-0.99419 -6.25468,-4.87408 -0.55,-0.46175 -2.125,-1.4222 -3.5,-2.13433 -1.375,-0.71214 -2.5,-1.50274 -2.5,-1.75689 0,-0.25415 -0.9,-0.65977 -2,-0.90137 -1.1,-0.2416 -2,-0.68644 -2,-0.98854 0,-0.77337 -9.16865,-5.34479 -10.71976,-5.34479 -0.70413,0 -1.28024,-0.27616 -1.28024,-0.6137 0,-0.33753 -0.9,-0.81137 -2,-1.05297 -1.1,-0.2416 -2,-0.69705 -2,-1.01212 0,-0.31507 -1.35,-0.77529 -3,-1.02272 -1.65,-0.24744 -3,-0.69198 -3,-0.98788 0,-0.2959 -0.975,-0.74648 -2.16667,-1.00129 -1.19166,-0.25481 -2.46666,-0.70057 -2.83333,-0.99058 -0.36667,-0.29001 -2.16667,-0.74321 -4,-1.00711 -1.83333,-0.2639 -3.65309,-0.73287 -4.04391,-1.04214 C 176.57265,8.96021 174.47265,8.50264 172.2968,8.25265 170.12095,8.00267 168.16693,7.53374 167.95454,7.21059 167.74216,6.88744 163.00575,6.43575 157.42919,6.20683 151.85263,5.97792 147.1337,5.53774 146.94267,5.22865 c -0.45383,-0.73431 -5.41932,-0.73019 -5.87361,0.005 -0.19269,0.31177 -4.57112,0.73394 -9.72986,0.93816 -5.15874,0.20422 -9.74379,0.65794 -10.18901,1.00828 -0.44522,0.35033 -2.72878,0.82819 -5.07459,1.06191 -2.34581,0.23371 -4.59581,0.68706 -5,1.00743 -0.40419,0.32038 -2.2349,0.79842 -4.06823,1.06233 -1.83333,0.2639 -3.63333,0.7171 -4,1.00711 -0.36667,0.29001 -1.64167,0.73577 -2.83333,0.99058 -1.191664,0.25481 -2.166664,0.70539 -2.166664,1.00129 0,0.2959 -1.35,0.74044 -3,0.98788 -1.65,0.24743 -3,0.70765 -3,1.02272 0,0.31507 -0.898403,0.77017 -1.996451,1.01134 -2.598172,0.57066 -14.003549,6.2727 -14.003549,7.00098 0,0.30829 -0.9,0.7582 -2,0.9998 -1.1,0.2416 -2,0.64722 -2,0.90137 0,0.25415 -1.125,1.04475 -2.5,1.75689 -1.375,0.71213 -2.95,1.67258 -3.5,2.13433 -4.621468,3.87989 -5.897264,4.87408 -6.254677,4.87408 -1.045018,0 -23.078656,21.24115 -23.078656,22.24858 0,0.35176 -0.442228,1.11473 -0.982728,1.69549 -2.630525,2.82646 -5.017272,5.97126 -5.017272,6.61081 0,0.39171 -0.397624,0.9521 -0.883608,1.24532 -0.485984,0.29322 -1.091976,0.98313 -1.346649,1.53313 -0.254673,0.55 -1.199857,2.2 -2.100409,3.66667 -0.900551,1.46666 -1.829548,3.19166 -2.064438,3.83333 -0.234889,0.64167 -0.692082,1.16667 -1.015984,1.16667 -0.323902,0 -0.588912,0.41326 -0.588912,0.91837 0,0.5051 -0.418618,1.26579 -0.930262,1.69042 -0.511645,0.42462 -1.125238,1.81136 -1.363542,3.08163 -0.238304,1.27027 -0.719686,2.30958 -1.069738,2.30958 -0.350052,0 -0.640259,0.375 -0.644903,0.83333 -0.0046,0.45833 -0.895629,2.58273 -1.979965,4.72089 -1.084335,2.13816 -2.164544,4.91647 -2.400463,6.17403 -0.23592,1.25756 -0.668832,2.43473 -0.962028,2.61594 -0.293195,0.1812 -0.73529,1.52632 -0.982433,2.98914 -0.247142,1.46282 -0.705913,2.81824 -1.01949,3.01205 -0.313577,0.1938 -0.779111,1.77037 -1.034522,3.50349 -0.25541,1.73312 -0.7075566,3.30945 -1.0047703,3.50295 -0.2972137,0.1935 -0.7502196,2.4435 -1.0066798,5 -0.2564602,2.5565 -0.7314628,4.82195 -1.0555613,5.03434 -0.3240985,0.21238 -0.7765624,4.94879 -1.0054752,10.52535 -0.2289129,5.57656 -0.6690968,10.29549 -0.9781865,10.48652 -0.7341036,0.4537 -0.7332591,6.9353 9.036e-4,6.9353 0.3095866,0 0.7530643,4.40326 0.9855058,9.78503 0.2324415,5.38177 0.6844988,9.95677 1.0045717,10.16666 0.3200729,0.2099 0.7917817,2.47332 1.0482419,5.02982 0.2564602,2.5565 0.7216922,4.8065 1.0338489,5 0.3121566,0.1935 0.7815862,1.78051 1.0431772,3.52668 0.261591,1.74618 0.7149,3.32275 1.007353,3.5035 0.292453,0.18074 0.733941,1.52548 0.981083,2.98831 0.247143,1.46282 0.723247,2.82895 1.058009,3.03585 0.334762,0.20689 0.608658,0.83813 0.608658,1.40274 0,1.00349 0.824734,3.10144 3.394322,8.63443 0.69979,1.50683 1.272345,3.08183 1.272345,3.5 0,0.41817 0.276163,0.76031 0.613696,0.76031 0.337533,0 0.81137,0.9 1.05297,2 0.241601,1.1 0.691601,2 1,2 0.3084,0 0.7584,0.9 1,2 0.241601,1.1 0.680448,2 0.975216,2 0.294769,0 0.728125,0.525 0.963014,1.16667 0.23489,0.64166 1.163887,2.36666 2.064438,3.83333 0.900552,1.46667 1.845736,3.11667 2.100409,3.66667 0.254673,0.55 0.860665,1.2399 1.346649,1.53312 0.485984,0.29322 0.883608,0.85362 0.883608,1.24533 0,0.63955 2.386747,3.78435 5.017272,6.6108 0.5405,0.58076 0.982728,1.34373 0.982728,1.69549 0,1.00743 22.033638,22.24859 23.078656,22.24859 0.357413,0 1.633209,0.99419 6.254677,4.87408 0.55,0.46174 2.125,1.42219 3.5,2.13433 1.375,0.71214 2.5,1.50273 2.5,1.75689 0,0.25415 0.9,0.65976 2,0.90136 1.1,0.2416 2,0.68645 2,0.98855 0,0.77337 9.168652,5.34479 10.719758,5.34479 0.704133,0 1.280242,0.27616 1.280242,0.61369 0,0.33754 0.9,0.81137 2,1.05297 1.1,0.2416 2,0.69706 2,1.01213 0,0.31506 1.35,0.77529 3,1.02272 1.65,0.24743 3,0.69198 3,0.98788 0,0.2959 0.975,0.74648 2.166664,1.00129 1.19166,0.2548 2.46666,0.70056 2.83333,0.99057 0.36667,0.29002 2.16667,0.74322 4,1.00712 1.83333,0.2639 3.65309,0.73286 4.04391,1.04214 0.39081,0.30927 2.49081,0.76685 4.66666,1.01683 2.17585,0.24999 4.12987,0.71892 4.34226,1.04207 0.21238,0.32315 4.94879,0.77484 10.52535,1.00375 5.57656,0.22892 10.29549,0.6691 10.48652,0.97819 0.45383,0.73431 5.41932,0.73019 5.87361,-0.005 z m -12.93831,-14.43315 c 0,-2.44444 0.2906,-4.33333 0.66667,-4.33333 0.41796,0 0.66614,-4.16574 0.66526,-11.16667 l -0.001,-11.16667 4.33473,0.22356 4.33473,0.22355 v 7.94311 c 0,4.85097 -0.25952,7.94312 -0.66667,7.94312 -0.40404,0 -0.66666,2.88889 -0.66666,7.33333 v 7.33333 h -4.33373 -4.33333 z m 16.84546,2.88826 c -0.42458,-0.85521 -0.97422,-5.00493 -1.22143,-9.22159 -0.24721,-4.21667 -0.66837,-7.81667 -0.93592,-8 -1.56638,-1.07334 -1.36181,-12 0.22467,-12 0.87297,0 2.52472,-0.1875 3.67055,-0.41667 1.81046,-0.36209 2.08334,-0.23111 2.08334,1 0,0.77917 0.27616,1.41667 0.61369,1.41667 0.33754,0 0.81137,0.9 1.05297,2 0.2416,1.1 0.71544,2 1.05297,2 0.33754,0 0.6137,0.45 0.6137,1 0,0.55 0.3,1 0.66667,1 0.36666,0 0.66666,-0.5823 0.66666,-1.29399 0,-0.71169 -0.3,-1.4794 -0.66666,-1.70601 -1.11955,-0.69192 -0.82691,-5.66667 0.33333,-5.66667 0.55,0 1,-0.3 1,-0.66667 0,-0.36666 1.05,-0.66666 2.33333,-0.66666 1.62963,0 2.33334,0.30159 2.33334,1 0,0.55 0.26685,1 0.59299,1 0.32615,0 0.80928,3.675 1.07363,8.16666 0.26434,4.49167 0.70648,8.46667 0.98252,8.83334 0.27605,0.36666 0.68353,3.14166 0.90551,6.16666 l 0.40361,5.5 h -2.60645 c -1.43355,0 -2.79187,0.3 -3.01848,0.66667 -0.62271,1.00757 -1.66667,0.79878 -1.66667,-0.33333 0,-0.55 -0.3,-1 -0.66666,-1 -0.36667,0 -0.66667,-0.58767 -0.66667,-1.30594 0,-1.52576 -2.10285,-5.98703 -2.83333,-6.01099 -0.275,-0.009 -0.5,0.73359 -0.5,1.65026 0,0.91667 0.3,1.66667 0.66666,1.66667 0.36667,0 0.66667,1.35 0.66667,3 0,2.48889 -0.21296,3 -1.25,3 -0.6875,0 -2.12358,0.17471 -3.19129,0.38825 -1.57955,0.31591 -2.08513,0.0985 -2.71325,-1.16666 z m -25.80348,0.17967 c -0.20352,-0.32931 -2.49834,-0.81248 -5.0996,-1.07372 l -4.72956,-0.47497 0.47346,-4.75962 c 0.26041,-2.61779 0.69519,-4.90962 0.96618,-5.09295 0.271,-0.18334 0.7106,-2.58334 0.97688,-5.33334 0.26629,-2.75 0.71744,-5.3 1.00255,-5.66666 0.28511,-0.36667 0.71027,-2.59237 0.9448,-4.946 0.51897,-5.20813 0.0564,-4.80369 4.80322,-4.19959 l 3.95342,0.50313 -0.2327,3.32123 c -0.12798,1.82668 -0.46698,3.62123 -0.75332,3.98789 -0.28634,0.36667 -0.73203,2.98967 -0.99043,5.82889 -0.25839,2.83922 -0.7444,5.33192 -1.08001,5.53934 -1.94219,1.20035 0.0242,6.29844 2.42941,6.29844 0.94039,0 1.06404,0.42836 0.72162,2.5 -0.22727,1.375 -0.41653,2.875 -0.42056,3.33333 -0.008,0.95133 -2.40521,1.14094 -2.96536,0.2346 z m 52.34264,-6.78588 c -1.12821,-1.1282 -2.05129,-2.6282 -2.05129,-3.33333 0,-0.70513 -0.27616,-1.28205 -0.61369,-1.28205 -0.33754,0 -0.82218,-0.975 -1.07698,-2.16667 -0.25481,-1.19167 -0.69401,-2.46667 -0.97599,-2.83333 -0.28199,-0.36667 -0.73199,-1.71667 -1,-3 -0.26802,-1.28334 -0.76891,-2.68366 -1.11311,-3.11184 -2.81209,-3.49822 1.08367,-12.88816 5.34712,-12.88816 0.78796,0 1.43263,-0.225 1.4326,-0.5 -2e-5,-0.275 0.82498,-0.47513 1.83334,-0.44474 2.06029,0.0621 6.83338,2.13879 6.83338,2.97308 0,0.2987 0.41342,0.95651 0.91872,1.46181 1.65313,1.65313 2.06214,5.17651 0.60092,5.17651 -0.68914,0 -1.53797,0.26127 -1.88631,0.5806 -2.61054,2.39316 -6.3,0.59981 -6.3,-3.06227 0,-0.83508 -0.33865,-1.51833 -0.75255,-1.51833 -1.17991,0 -0.059,6.74066 1.29167,7.76724 1.30633,0.99291 4.12755,1.18821 4.12755,0.28573 0,-0.33753 0.975,-0.82217 2.16667,-1.07698 1.19166,-0.2548 2.52042,-0.74774 2.95278,-1.09541 0.57199,-0.45995 0.9104,0.19659 1.24237,2.41031 0.25093,1.67335 0.69834,3.04245 0.99424,3.04245 0.2959,0 0.74648,0.975 1.00128,2.16666 0.25481,1.19167 0.7018,2.46667 0.99332,2.83334 1.45675,1.8323 1.49524,5.66666 0.0569,5.66666 -0.77414,0 -1.40753,0.3 -1.40753,0.66667 0,0.36667 -0.8535,0.66667 -1.89667,0.66667 -1.05002,0 -2.43532,0.59519 -3.10333,1.33333 -2.01853,2.23045 -7.04208,1.85536 -9.61538,-0.71795 z m 7.94871,-5.90937 c 0,-0.71169 -0.3,-1.4794 -0.66666,-1.70601 -0.36667,-0.22661 -0.66667,-0.99432 -0.66667,-1.70601 0,-1.36728 -0.97699,-1.74324 -1.65966,-0.63867 -0.85512,1.38363 0.42987,5.34468 1.73385,5.34468 0.80194,0 1.25914,-0.46986 1.25914,-1.29399 z m -3.33333,-5.37268 c 0,-0.36667 -0.3,-0.66667 -0.66667,-0.66667 -0.36666,0 -0.66666,0.3 -0.66666,0.66667 0,0.36667 0.3,0.66667 0.66666,0.66667 0.36667,0 0.66667,-0.3 0.66667,-0.66667 z m -1,-2.66667 c 0.22661,-0.36666 0.0943,-0.66666 -0.29399,-0.66666 -0.3883,0 -0.70601,0.3 -0.70601,0.66666 0,0.36667 0.13229,0.66667 0.29399,0.66667 0.16169,0 0.4794,-0.3 0.70601,-0.66667 z m -80.62742,14.31214 c -0.711741,-0.53834 -1.986741,-0.9788 -2.833327,-0.9788 -1.554882,0 -2.245599,-2.15143 -0.948156,-2.95329 0.325101,-0.20093 0.788694,-1.41863 1.030209,-2.70602 0.241515,-1.28738 0.707142,-2.34069 1.034727,-2.34069 0.327585,0 0.798054,-1.35 1.045487,-3 0.247433,-1.65 0.71581,-3 1.04084,-3 0.32504,0 0.59097,-0.68325 0.59097,-1.51833 0,-0.83508 0.43047,-2.13291 0.95659,-2.88406 1.69877,-2.42532 1.61485,-5.23053 -0.16402,-5.48265 -1.79331,-0.25417 -2.638014,-1.86951 -1.54776,-2.95977 0.41536,-0.41536 0.75519,-1.23519 0.75519,-1.82186 0,-0.58666 0.3385,-1.40516 0.75222,-1.81889 0.75811,-0.75811 1.04439,-0.67877 5.01731,1.39036 1.15658,0.60236 2.54728,1.0952 3.09046,1.0952 0.54318,0 1.8469,0.44815 2.89714,0.99589 1.05025,0.54774 2.56683,0.99774 3.3702,1 2.04038,0.006 2.50566,1.11415 1.26347,3.00997 -0.5816,0.88764 -1.05746,2.10784 -1.05746,2.71154 0,0.88478 -0.43461,1.01612 -2.24101,0.67724 -2.60379,-0.48848 -3.38022,0.19556 -4.09233,3.60536 -0.26801,1.28333 -0.71801,2.63333 -1,3 -0.28198,0.36666 -0.72118,1.64166 -0.97599,2.83333 -0.2548,1.19167 -0.72106,2.16667 -1.03613,2.16667 -0.31506,0 -0.77529,1.35 -1.02272,3 -0.24744,1.65 -0.67832,3 -0.95752,3 -0.2792,0 -0.68764,0.9 -0.90764,2 -0.44658,2.23293 -1.92992,2.59047 -4.06075,0.9788 z m -19.642635,-8.77325 c -3.470359,-0.70426 -11.026515,-10.20555 -8.116243,-10.20555 0.337534,0 0.81137,-0.9 1.052971,-2 0.2416,-1.1 0.715437,-2 1.05297,-2 0.337533,0 0.613696,-0.45 0.613696,-1 0,-1.27823 -0.08384,-1.29346 3.567374,0.64791 3.37554,1.79479 4.323234,0.89179 2.120495,-2.02049 -1.158024,-1.53105 -1.352933,-7.69569 -0.277325,-8.7713 0.409133,-0.40913 1.084133,-1.42 1.5,-2.24638 1.784972,-3.54696 6.478731,-4.39162 10.42279,-1.87562 0.55,0.35086 1.525,0.8142 2.166666,1.02965 0.641667,0.21546 1.166667,0.68443 1.166667,1.04216 0,0.35774 0.611687,1.42806 1.359305,2.37851 2.119527,2.69454 -0.251429,10.59906 -2.595125,8.65188 -0.603632,-0.50151 -1.930933,-1.26725 -2.949557,-1.70165 -2.335654,-0.99604 -3.059906,-2.72946 -1.58961,-3.80457 1.493545,-1.09211 1.402137,-2.3301 -0.172043,-2.3301 -2.054766,0 -2.458012,3.48119 -0.776858,6.70655 0.764805,1.46731 1.390555,3.2586 1.390555,3.98064 0,0.72205 0.3,1.31281 0.666666,1.31281 1.657656,0 -1.836158,9.26086 -4.249413,11.26368 -1.092999,0.90711 -4.232249,1.37245 -6.353981,0.94187 z m 1.270061,-7.53889 c 1.204742,-1.20474 1.902217,-4.66666 0.940195,-4.66666 -0.885049,0 -2.897363,3.10328 -2.918015,4.5 -0.02725,1.84297 0.275967,1.86852 1.97782,0.16666 z m 131.666664,1.46404 c -1.95881,-0.22116 -8.33334,-5.62376 -8.33334,-7.06274 0,-0.35685 -1.2,-2.07195 -2.66666,-3.81133 -1.46667,-1.73938 -2.66667,-3.34583 -2.66667,-3.5699 0,-0.22406 -0.64156,-1.27514 -1.42568,-2.33573 -2.42735,-3.28315 0.28237,-11.351 3.81241,-11.351 0.44218,0 0.97663,-0.45 1.18769,-1 0.26898,-0.70097 1.36235,-1 3.65636,-1 2.0957,0 3.57109,0.35963 4.10255,1 0.45646,0.55 1.2432,1 1.7483,1 0.5051,0 0.91837,0.39387 0.91837,0.87527 0,0.4814 0.9,1.73753 2,2.7914 2.08998,2.00233 2.50987,3 1.2626,3 -0.40557,0 -1.8839,0.90805 -3.28519,2.01789 l -2.5478,2.01789 -2.52265,-3.01789 c -2.50664,-2.99875 -4.24029,-3.85714 -4.24029,-2.09952 0,0.5051 0.45,1.29183 1,1.74829 0.55,0.45646 1,1.10752 1,1.4468 0,0.33928 0.75,1.31194 1.66666,2.16148 0.91667,0.84954 1.66667,1.74736 1.66667,1.99516 0,0.68999 2.89228,4.66098 3.83333,5.26302 0.45834,0.29322 0.83334,0.95052 0.83334,1.46066 0,1.26179 1.29827,1.97461 2.11282,1.16006 0.66735,-0.66735 -0.0888,-2.53578 -1.99304,-4.92481 -0.91048,-1.14227 0.60384,-3.8957 2.14255,-3.8957 0.34797,0 1.1813,-0.4965 1.85184,-1.10333 1.32646,-1.20043 3.88583,0.21637 3.88583,2.1511 0,0.46261 0.33805,0.9538 0.75122,1.09152 5.85254,1.95085 -3.06518,14.74633 -9.75122,13.99141 z m -154.446,-9.9212 c -6.043859,-5.71973 -6.606219,-4.1174 6.279336,-17.89169 2.108333,-2.25374 3.833333,-4.38839 3.833333,-4.74365 0,-0.35527 1.069216,-1.67979 2.376036,-2.94338 l 2.376035,-2.29745 2.648045,2.83334 c 1.456424,1.55833 2.884914,2.83333 3.174422,2.83333 1.530118,0 3.450323,3.18087 2.857038,4.73277 -1.177529,3.08013 -3.017374,4.16324 -4.426691,2.60596 -1.50708,-1.66531 -3.130892,-1.70781 -4.568226,-0.11957 -1.470223,1.62458 -1.403245,2.01969 0.610935,3.60405 l 1.714261,1.34844 -2.174998,2.24403 -2.174998,2.24402 -1.558669,-1.46429 -1.558668,-1.46429 -2.122726,2.12272 -2.122726,2.12273 1.997448,2.17838 1.997449,2.17838 -2.134653,2.2507 -2.134652,2.2507 z m 163.3657,-15.01221 -10.9197,-10.46938 2.82858,-2.8494 2.82859,-2.84941 4.33808,4.29953 c 2.38594,2.36473 4.33808,4.01685 4.33808,3.67137 0,-0.34548 1.94273,1.29731 4.31717,3.65065 l 4.31718,4.2788 1.70311,-1.6 1.70311,-1.59999 2.29085,2.30194 2.29085,2.30193 -4.5581,4.66667 -4.55811,4.66666 z m -86.22145,4.9679 c -2.91596,-0.12438 -5.61596,-0.47541 -6,-0.78007 -0.38404,-0.30466 -2.49825,-0.76986 -4.69825,-1.03378 -2.2,-0.26391 -4.3,-0.71629 -4.66667,-1.00528 -0.36667,-0.28899 -1.70682,-0.74822 -2.97812,-1.02052 -1.2713,-0.27229 -2.7713,-0.71666 -3.33333,-0.98747 -2.25393,-1.08605 -9.751,-4.55624 -10.68855,-4.94744 -0.55,-0.2295 -2.2,-1.14584 -3.66667,-2.03632 -1.466657,-0.89048 -3.332243,-1.92348 -4.145736,-2.29556 -0.813493,-0.37208 -1.860657,-1.28751 -2.327031,-2.0343 -0.466374,-0.74678 -1.169661,-1.35778 -1.562861,-1.35778 -0.393199,0 -1.577162,-0.9 -2.631029,-2 -1.053867,-1.1 -2.245243,-2 -2.647501,-2 -0.92208,0 -7.685833,-6.80225 -7.685833,-7.72957 0,-0.37821 -0.9,-1.5499 -2,-2.60377 -1.1,-1.05386 -2,-2.17432 -2,-2.48989 0,-0.31557 -0.697353,-1.23445 -1.549675,-2.04194 -0.852321,-0.80749 -1.766633,-1.91817 -2.031806,-2.46817 -0.265172,-0.55 -1.218635,-2.2 -2.118807,-3.66666 -0.900172,-1.46667 -1.820849,-3.19167 -2.045948,-3.83334 -0.2251,-0.64166 -0.650446,-1.16666 -0.945214,-1.16666 -0.294769,0 -0.733616,-0.9 -0.975216,-2 -0.241601,-1.1 -0.715437,-2 -1.052971,-2 -0.337533,0 -0.613696,-0.68325 -0.613696,-1.51833 0,-0.83508 -0.411668,-2.11008 -0.914817,-2.83334 -0.50315,-0.72325 -1.137791,-2.365 -1.410315,-3.64833 -0.272524,-1.28334 -0.731944,-2.63334 -1.020934,-3 -0.28899,-0.36667 -0.744934,-2.46667 -1.01321,-4.66667 -0.268276,-2.2 -0.822188,-4.21406 -1.230916,-4.47568 -1.040803,-0.66622 -1.040803,-31.04908 0,-31.7153 C 58.825912,129.21405 59.379824,127.2 59.6481,125 c 0.268276,-2.2 0.72422,-4.3 1.01321,-4.66667 0.28899,-0.36667 0.74841,-1.71667 1.020934,-3 0.272524,-1.28333 0.907165,-2.92509 1.410315,-3.64834 0.503149,-0.72325 0.914817,-1.99825 0.914817,-2.83333 0,-0.83508 0.276163,-1.51833 0.613696,-1.51833 0.337534,0 0.81137,-0.9 1.052971,-2 0.2416,-1.1 0.680447,-2 0.975216,-2 0.294768,0 0.720114,-0.525 0.945214,-1.16667 0.225099,-0.64166 1.145776,-2.36666 2.045948,-3.83333 0.900172,-1.46667 1.860861,-3.11667 2.134865,-3.66667 0.646764,-1.29823 1.311723,-2.13658 4.73209,-5.96605 1.558333,-1.74472 2.833333,-3.45136 2.833333,-3.79252 0,-0.84351 6.868825,-7.57476 7.72957,-7.57476 0.378203,0 1.549897,-0.9 2.603764,-2 1.053867,-1.1 2.23783,-2 2.631029,-2 0.3932,0 1.096487,-0.611 1.562861,-1.35779 0.466374,-0.74678 1.513538,-1.66761 2.327031,-2.04628 2.417551,-1.12533 5.341626,-2.83406 7.581986,-4.43064 C 104.93355,66.67438 106.32182,66 106.86199,66 c 0.54016,0 1.32954,-0.41862 1.75417,-0.93026 0.42463,-0.51165 1.79869,-1.12287 3.05347,-1.35826 1.25478,-0.2354 3.11909,-0.86494 4.14291,-1.39897 1.02382,-0.53403 2.51879,-0.97281 3.32215,-0.97507 0.80336,-0.002 1.62782,-0.27459 1.83214,-0.60518 0.20431,-0.33059 2.24702,-0.814 4.53934,-1.07426 2.29233,-0.26025 4.55591,-0.78733 5.03019,-1.17129 1.15696,-0.93662 25.77251,-0.94393 26.94202,-0.008 0.47428,0.37956 2.66232,0.90603 4.86232,1.16994 2.2,0.26392 4.3,0.71629 4.66667,1.00528 0.36667,0.28899 1.70682,0.74823 2.97812,1.02053 1.2713,0.27229 2.7713,0.72119 3.33333,0.99755 3.87686,1.90629 7.291,3.32799 7.99199,3.32799 0.45324,0 1.77038,0.67438 2.92698,1.49863 2.24036,1.59657 5.16444,3.3053 7.58199,4.43064 0.81349,0.37867 1.86066,1.29949 2.32703,2.04627 0.46638,0.74679 1.16966,1.35779 1.56286,1.35779 0.3932,0 1.57717,0.9 2.63103,2 1.05387,1.1 2.24525,2 2.6475,2 0.85613,0 7.68584,6.76988 7.68584,7.6185 0,0.31711 1.275,2.00406 2.83333,3.74878 3.42037,3.82947 4.08533,4.66782 4.73209,5.96606 0.274,0.55 1.23469,2.2 2.13487,3.66666 0.90017,1.46667 1.82084,3.19167 2.04594,3.83333 0.2251,0.64167 0.65045,1.16667 0.94522,1.16667 0.29477,0 0.73361,0.9 0.97521,2 0.2416,1.1 0.71544,2 1.05297,2 0.33754,0 0.6137,0.68325 0.6137,1.51833 0,0.83508 0.41167,2.11008 0.91482,2.83333 0.50315,0.72325 1.13779,2.36501 1.41031,3.64834 0.27253,1.28333 0.73195,2.63333 1.02094,3 0.28899,0.36667 0.74493,2.46667 1.01321,4.66667 0.26827,2.2 0.82218,4.21405 1.23091,4.47568 1.0408,0.66622 1.0408,31.04908 0,31.7153 -0.40873,0.26162 -0.96264,2.27568 -1.23091,4.47568 -0.26828,2.2 -0.72422,4.3 -1.01321,4.66667 -0.28899,0.36666 -0.74841,1.71666 -1.02094,3 -0.27252,1.28333 -0.90716,2.92508 -1.41031,3.64833 -0.50315,0.72326 -0.91482,1.99826 -0.91482,2.83334 0,0.83508 -0.27616,1.51833 -0.6137,1.51833 -0.33753,0 -0.81137,0.9 -1.05297,2 -0.2416,1.1 -0.68044,2 -0.97521,2 -0.29477,0 -0.72012,0.525 -0.94522,1.16666 -0.2251,0.64167 -1.14577,2.36667 -2.04594,3.83334 -0.90018,1.46666 -1.85364,3.11666 -2.11881,3.66666 -0.26517,0.55 -1.17949,1.66068 -2.03181,2.46817 -0.85232,0.80749 -1.54967,1.72637 -1.54967,2.04194 0,0.31557 -0.9,1.43603 -2,2.48989 -1.1,1.05387 -2,2.24525 -2,2.6475 0,0.92208 -6.80225,7.68584 -7.72957,7.68584 -0.37821,0 -1.5499,0.9 -2.60377,2 -1.05386,1.1 -2.23783,2 -2.63103,2 -0.3932,0 -1.07611,0.57837 -1.51758,1.28528 -0.7881,1.26195 -2.41959,2.33024 -6.63913,4.34726 -1.1666,0.55766 -2.3093,1.31847 -2.53935,1.69069 -0.23004,0.37222 -0.89724,0.67677 -1.48266,0.67677 -0.58541,0 -1.99571,0.71034 -3.13398,1.57855 -1.13828,0.8682 -3.0618,1.79648 -4.2745,2.06283 -1.2127,0.26636 -3.00971,0.90416 -3.99334,1.41734 -0.98363,0.51318 -2.44572,0.93491 -3.24908,0.93717 -0.80336,0.002 -1.62782,0.27459 -1.83214,0.60518 -0.20431,0.33058 -2.24702,0.814 -4.53934,1.07425 -2.29233,0.26026 -4.46787,0.6989 -4.83453,0.97476 -0.82669,0.62196 -14.16053,1.15304 -21.30175,0.84844 z m 13.30175,-5.49852 c 0.22661,-0.36667 2.17661,-0.66667 4.33333,-0.66667 2.15672,0 4.07581,-0.24998 4.26464,-0.55551 0.18883,-0.30554 1.221,-0.4267 2.29373,-0.26926 1.07272,0.15744 2.15363,-0.0426 2.40203,-0.44449 0.24839,-0.40191 1.33392,-0.73074 2.41228,-0.73074 1.07836,0 1.96065,-0.3321 1.96065,-0.73799 0,-0.4059 0.4404,-0.569 0.97865,-0.36245 0.53826,0.20655 1.15597,0.0886 1.37268,-0.26201 0.21672,-0.35065 1.12632,-0.63755 2.02135,-0.63755 0.89503,0 1.62732,-0.3 1.62732,-0.66667 0,-0.36666 0.225,-0.61904 0.5,-0.56083 1.14418,0.2422 9.84524,-3.91525 10.93021,-5.22256 0.40318,-0.4858 1.02815,-0.88327 1.38882,-0.88327 0.36067,0 1.79211,-0.9 3.18097,-2 1.38887,-1.1 2.88972,-2 3.33522,-2 1.02806,0 16.66478,-15.77213 16.66478,-16.80909 0,-0.4244 0.57144,-1.39098 1.26987,-2.14795 2.47231,-2.67952 8.36164,-13.83558 9.10326,-17.24415 0.25515,-1.17268 0.87557,-2.7239 1.37872,-3.44715 0.50315,-0.72325 0.91482,-2.08825 0.91482,-3.03333 0,-0.94508 0.30627,-2.0246 0.6806,-2.39893 0.37433,-0.37433 0.86861,-2.694 1.09841,-5.15481 0.22979,-2.46082 0.67352,-4.63225 0.98607,-4.82541 0.74224,-0.45873 0.74224,-21.41963 0,-21.87836 -0.31255,-0.19316 -0.75628,-2.3646 -0.98607,-4.82541 -0.2298,-2.46082 -0.72408,-4.78048 -1.09841,-5.15481 -0.37433,-0.37433 -0.6806,-1.45385 -0.6806,-2.39893 0,-0.94508 -0.41167,-2.31008 -0.91482,-3.03333 -0.50315,-0.72326 -1.12357,-2.27447 -1.37872,-3.44715 -0.74162,-3.40858 -6.63095,-14.56464 -9.10326,-17.24416 -0.69843,-0.75696 -1.26987,-1.73196 -1.26987,-2.16666 0,-0.9988 -15.74175,-16.79037 -16.73739,-16.79037 -0.40557,0 -1.87374,-0.9 -3.26261,-2 -1.38886,-1.1 -2.8203,-2 -3.18097,-2 -0.36067,0 -0.98564,-0.39747 -1.38882,-0.88327 -1.08497,-1.30731 -9.78603,-5.46477 -10.93021,-5.22257 -0.275,0.0582 -0.5,-0.19416 -0.5,-0.56083 C 173.3407,68.3 172.60841,68 171.71338,68 c -0.89503,0 -1.80463,-0.2869 -2.02135,-0.63755 -0.21671,-0.35066 -0.83442,-0.46856 -1.37268,-0.26201 -0.53825,0.20655 -0.97865,0.0434 -0.97865,-0.36245 0,-0.4059 -0.88229,-0.73799 -1.96065,-0.73799 -1.07836,0 -2.16389,-0.32884 -2.41228,-0.73075 -0.2484,-0.40191 -1.32931,-0.60193 -2.40203,-0.44449 -1.07273,0.15745 -2.1049,0.0363 -2.29373,-0.26925 C 158.08318,64.24998 156.46409,64 154.67404,64 c -1.79006,0 -3.44006,-0.3 -3.66667,-0.66667 -0.53749,-0.86968 -12.12917,-0.86968 -12.66667,0 C 138.11409,63.7 136.16409,64 134.00737,64 c -2.15672,0 -4.07581,0.24998 -4.26464,0.55551 -0.18883,0.30553 -1.221,0.4267 -2.29373,0.26925 -1.07272,-0.15744 -2.15363,0.0426 -2.40203,0.44449 C 124.79858,65.67116 123.71305,66 122.63469,66 c -1.07836,0 -1.96065,0.33209 -1.96065,0.73799 0,0.4059 -0.4404,0.569 -0.97865,0.36245 -0.53826,-0.20655 -1.15597,-0.0886 -1.37268,0.26201 C 118.10599,67.7131 117.19639,68 116.30136,68 c -0.89503,0 -1.62732,0.3 -1.62732,0.66666 0,0.36667 -0.225,0.61904 -0.5,0.56083 -1.14418,-0.2422 -9.84524,3.91526 -10.93021,5.22257 -0.40318,0.4858 -1.02815,0.88327 -1.38882,0.88327 -0.36067,0 -1.79211,0.9 -3.180967,2 -1.388864,1.1 -2.886359,2 -3.327767,2 -1.047144,0 -16.672233,15.72051 -16.672233,16.77405 0,0.44367 -0.571441,1.42602 -1.269868,2.18298 -2.472306,2.67952 -8.361636,13.83558 -9.103261,17.24416 -0.255147,1.17268 -0.875571,2.72389 -1.378721,3.44715 -0.503149,0.72325 -0.914817,2.08825 -0.914817,3.03333 0,0.94508 -0.30627,2.0246 -0.680601,2.39893 -0.37433,0.37433 -0.868614,2.69399 -1.098408,5.15481 -0.229795,2.46081 -0.673524,4.63225 -0.986066,4.82541 -0.742243,0.45873 -0.742243,21.41963 0,21.87836 0.312542,0.19316 0.756271,2.36459 0.986066,4.82541 0.229794,2.46081 0.724078,4.78048 1.098408,5.15481 0.374331,0.37433 0.680601,1.45385 0.680601,2.39893 0,0.94508 0.411668,2.31008 0.914817,3.03333 0.50315,0.72325 1.123574,2.27447 1.378721,3.44715 0.741625,3.40857 6.630955,14.56463 9.103261,17.24415 0.698427,0.75697 1.269868,1.61682 1.269868,1.91078 0,0.64944 7.711108,9.50253 9.905846,11.37285 0.864882,0.73704 2.701242,2.31507 4.0808,3.50674 1.379558,1.19167 2.728757,2.16667 2.998218,2.16667 0.269461,0 1.626272,0.9 3.015136,2 1.388857,1.1 2.820297,2 3.180967,2 0.36067,0 1.0063,0.42236 1.43473,0.93859 1.01616,1.2244 5.48126,3.38533 6.55096,3.1704 0.45834,-0.0921 0.83334,0.11072 0.83334,0.45069 0,0.5945 2.46845,1.66117 3.5,1.51242 0.275,-0.0397 0.5,0.2279 0.5,0.59456 0,0.36667 0.73229,0.66667 1.62732,0.66667 0.89503,0 1.80463,0.2869 2.02135,0.63755 0.21671,0.35065 0.83442,0.46856 1.37268,0.26201 0.53825,-0.20655 0.97865,-0.0434 0.97865,0.36245 0,0.40589 0.88229,0.73799 1.96065,0.73799 1.07836,0 2.16389,0.32883 2.41228,0.73074 0.2484,0.40191 1.32931,0.60193 2.40203,0.44449 1.07273,-0.15744 2.1049,-0.0363 2.29373,0.26926 0.18883,0.30553 2.10792,0.55551 4.26464,0.55551 2.15672,0 4.10672,0.3 4.33333,0.66667 0.22662,0.36666 2.77662,0.66666 5.66667,0.66666 2.89005,0 5.44005,-0.3 5.66667,-0.66666 z M 115.3407,216.07775 c 0,-0.51803 -1.67656,-1.28825 -3.66666,-1.6845 -1.94796,-0.38785 -4.31242,-1.82302 -5.5084,-3.34347 -1.05326,-1.339 -1.94347,-1.71645 -4.04821,-1.71645 -1.48392,0 -2.895487,-0.31949 -3.136821,-0.70998 -0.241334,-0.39049 -1.234039,-0.64743 -2.206011,-0.57099 -1.693723,0.1332 -4.064386,-0.53171 -4.767222,-1.33707 -0.183333,-0.21008 -0.933333,-0.70832 -1.666667,-1.10721 -3.36278,-1.82913 -5.85148,-11.82327 -3.523809,-14.15094 1.034801,-1.0348 1.056588,-7.67857 0.02924,-8.91645 -0.429156,-0.5171 -0.988987,-2.2753 -1.244069,-3.90711 -0.255083,-1.6318 -0.782526,-3.17436 -1.172098,-3.42789 -1.031975,-0.67161 -0.956471,-17.36107 0.08011,-17.7066 0.43363,-0.14454 0.979298,-1.28028 1.212595,-2.52386 0.233298,-1.24359 0.842796,-2.60849 1.35444,-3.03311 0.51164,-0.42463 0.930258,-1.18532 0.930258,-1.69042 0,-0.50511 0.3,-0.91837 0.666667,-0.91837 0.366666,0 0.666666,-0.40351 0.666666,-0.89668 0,-0.49317 0.6,-1.43966 1.333334,-2.10332 0.733333,-0.66366 1.333333,-1.61016 1.333333,-2.10333 0,-0.49317 0.413267,-0.89667 0.91837,-0.89667 0.505104,0 1.291837,-0.45 1.748297,-1 0.535456,-0.64519 0.575138,-1 0.111838,-1 -0.394948,0 -0.91569,-1.05332 -1.157205,-2.3407 -0.241515,-1.28738 -0.687775,-2.49437 -0.99169,-2.6822 -0.303915,-0.18783 -0.763759,-1.7498 -1.021875,-3.47104 -0.570932,-3.80725 -1.194447,-4.48969 -4.608193,-5.04366 -1.460652,-0.23703 -2.758088,-0.73804 -2.883192,-1.11335 C 83.998623,126.30707 83.530115,126 83.082598,126 c -0.447516,0 -1.847516,-1.06931 -3.111111,-2.37624 l -2.297444,-2.37623 0.04623,-7.97 c 0.03005,-5.17973 0.321795,-8.24556 0.833334,-8.7571 0.432904,-0.43291 0.787099,-2.11657 0.787099,-3.74149 0,-3.44 6.780317,-11.07439 9.137617,-10.28863 0.407108,0.13571 0.935393,-0.0691 1.173967,-0.45512 0.238575,-0.38602 1.266067,-0.70186 2.283317,-0.70186 1.017249,0 2.058227,-0.20868 2.313284,-0.46374 0.720541,-0.72054 2.425149,-0.82171 2.425149,-0.14394 0,0.33422 0.555318,0.60768 1.23404,0.60768 1.365355,0 6.79336,2.73372 9.22344,4.64522 2.57118,2.02249 11.0217,0.2457 12.0278,-2.52893 1.05577,-2.91161 8.01069,-8.11629 10.84563,-8.11629 0.73467,0 1.33575,-0.23293 1.33575,-0.51762 0,-0.28469 1.16489,-0.40652 2.58865,-0.27075 1.42465,0.13586 2.7913,-0.081 3.03934,-0.48238 0.26092,-0.42217 2.53957,-0.72925 5.41136,-0.72925 2.72836,0 4.96065,-0.28363 4.96065,-0.63029 0,-0.62218 2.56501,-2.26602 4.83334,-3.09754 0.64166,-0.23522 1.16666,-0.71039 1.16666,-1.05594 0,-0.34554 0.27927,-0.45565 0.6206,-0.2447 0.34134,0.21095 0.80904,0.0787 1.03935,-0.29399 0.53074,-0.85876 5.46234,-0.89169 5.98873,-0.04 0.21671,0.35065 0.77382,0.49181 1.238,0.31369 0.46419,-0.17813 1.55688,0.43497 2.4282,1.36245 1.4737,1.56868 2.01514,1.68631 7.76199,1.68631 3.46549,0 6.36162,0.29747 6.59652,0.67754 0.23031,0.37265 0.69801,0.50494 1.03935,0.29399 0.34133,-0.21095 0.6206,-0.0659 0.6206,0.32246 0,0.38831 0.39387,0.70601 0.87527,0.70601 2.42501,0 6.24455,6.40131 7.00922,11.74703 0.43334,3.02941 0.59536,3.2376 2.95366,3.79533 1.37235,0.32455 2.49518,0.86029 2.49518,1.19053 0,0.33025 2.325,0.60504 5.16667,0.61065 6.57194,0.013 7.16666,0.39738 7.16666,4.63214 v 3.35766 h 2.73001 c 1.79813,0 3.10663,0.41616 3.83333,1.21916 1.19437,1.31976 1.52524,5.44751 0.43666,5.44751 -0.36666,0 -0.66851,0.525 -0.67077,1.16667 -0.002,0.64166 -0.45226,2.02595 -1,3.0762 -1.29904,2.4908 -1.35785,2.3406 1.3611,3.47665 4.75176,1.98541 4.49653,4.85625 -0.92878,10.44715 -2.0459,2.10833 -3.38672,3.83333 -2.97962,3.83333 0.40711,0 0.93753,0.78624 1.17872,1.7472 0.24118,0.96096 0.8737,2.18239 1.4056,2.71428 1.81158,1.81159 -0.31398,7.53852 -2.79793,7.53852 -2.27191,0 -4.23498,3.74405 -4.23498,8.07711 0,5.49548 -0.84597,6.58955 -5.09524,6.58955 -3.21995,0 -4.43171,0.77803 -5.24,3.36443 -0.28112,0.89957 -0.79345,1.81734 -1.1385,2.03949 -0.34505,0.22216 -0.79412,1.64716 -0.99793,3.16667 -0.20381,1.51951 -0.59611,2.76275 -0.87178,2.76275 -0.27567,0 -0.70971,1.94684 -0.96453,4.32632 -0.25482,2.37947 -0.70576,4.47616 -1.00209,4.6593 -0.29633,0.18314 -0.73639,1.3863 -0.9779,2.67368 -0.24151,1.28738 -0.693,2.3407 -1.0033,2.3407 -0.31031,0 -0.75887,0.77568 -0.99682,1.72373 -0.63175,2.51708 -12.71191,15.59763 -12.71191,13.76461 0,-0.58046 -2.99289,0.86486 -3.2663,1.57735 -0.19719,0.51387 -1.11794,0.93431 -2.04611,0.93431 -0.92818,0 -1.68759,0.3 -1.68759,0.66666 0,0.36667 -0.225,0.63422 -0.5,0.59457 -1.00707,-0.14522 -3.5,0.9112 -3.5,1.48319 0,0.3239 -0.225,0.54128 -0.5,0.48307 -0.64176,-0.13584 -2.68724,0.62033 -4.9362,1.8248 -0.97324,0.52124 -2.39824,0.94771 -3.16666,0.94771 -0.76843,0 -1.39714,0.3 -1.39714,0.66666 0,0.36667 -0.225,0.63422 -0.5,0.59457 -1.06576,-0.15369 -3.5,0.92748 -3.5,1.55451 0,0.36313 -0.4404,0.49125 -0.97865,0.2847 -0.53826,-0.20655 -1.15597,-0.0887 -1.37268,0.26201 -0.21672,0.35065 -1.12632,0.63755 -2.02135,0.63755 -0.89503,0 -1.62732,0.3 -1.62732,0.66666 0,0.42277 -5,0.66667 -13.66667,0.66667 -7.51667,0 -13.66667,-0.26501 -13.66667,-0.58891 z m 25.00672,-2.08863 c 0.23031,-0.37265 0.72662,-0.48727 1.10292,-0.2547 0.37629,0.23256 1.33056,0.11804 2.1206,-0.25449 3.43584,-1.62012 6.34569,-2.81327 6.86095,-2.81327 0.5118,0 5.22583,-2.11364 9.79617,-4.39233 1.03805,-0.51755 2.20124,-0.941 2.58486,-0.941 1.12222,0 9.10366,-4.08732 9.93315,-5.0868 0.41684,-0.50226 1.15774,-0.9132 1.64645,-0.9132 1.17611,0 8.07939,-6.77135 8.93792,-8.76712 0.37056,-0.86142 0.93053,-2.01622 1.24438,-2.56622 1.73886,-3.04725 2.77725,-6.05316 3.16662,-9.16666 0.24074,-1.925 0.69906,-3.5 1.01848,-3.5 0.31943,0 0.58263,-0.975 0.58489,-2.16667 0.002,-1.19167 0.40593,-2.93666 0.89705,-3.87777 0.49112,-0.9411 1.1014,-2.54167 1.35619,-3.55682 0.25478,-1.01514 1.20111,-2.52955 2.10295,-3.36534 0.90184,-0.8358 1.6397,-1.86023 1.6397,-2.27652 0,-0.45961 1.25682,-0.75688 3.2,-0.75688 4.20863,0 4.79797,-0.73103 4.81021,-5.96667 0.0124,-5.29941 0.45314,-5.98479 5.15646,-8.01842 1.95007,-0.84318 2.03847,-4.48388 0.16667,-6.86349 -0.73334,-0.93228 -1.33334,-2.02274 -1.33334,-2.42324 0,-0.4005 -0.36633,-0.72818 -0.81407,-0.72818 -0.44774,0 1.05226,-1.88307 3.33333,-4.1846 5.28636,-5.33377 5.2339,-8.18135 -0.17572,-9.53908 -2.15099,-0.53986 -2.11021,-1.27658 0.32313,-5.83654 3.08812,-5.78701 2.86418,-6.43978 -2.20921,-6.43978 h -4.2092 l 0.2785,-3.85026 c 0.32084,-4.43559 -1.76206,-6.6977 -4.55885,-4.95108 -1.69043,1.05569 -3.33948,0.98213 -4.92866,-0.21986 -0.71175,-0.53834 -2.11904,-0.9788 -3.12732,-0.9788 -1.00828,0 -2.01865,-0.3 -2.24526,-0.66667 C 188.78076,98.3 188.0525,98 187.38903,98 c -1.02954,0 -1.25392,-0.74178 -1.53116,-5.06174 -0.31736,-4.94515 -0.39383,-5.13072 -3.32049,-8.05738 l -2.99565,-2.99565 -6.93385,-0.37706 c -5.89985,-0.32083 -7.24147,-0.61052 -8.99677,-1.94261 C 159.89129,76.74258 154.93177,77.29853 150.81485,81 l -3.33672,3 h -6.02937 c -3.31615,0 -6.18831,0.25717 -6.38257,0.5715 -0.19427,0.31432 -1.83907,0.74747 -3.65511,0.96256 -4.14762,0.49122 -9.40371,3.44985 -9.40371,5.29329 0,2.08506 -3.60519,5.17265 -6.03978,5.17265 -1.40151,0 -2.73361,0.3 -2.96022,0.66666 -0.76651,1.24025 -5.37551,0.76004 -6.69456,-0.69749 -6.432529,-7.10787 -24.305434,-4.66598 -24.305434,3.32073 0,0.61055 -0.343113,1.45321 -0.762473,1.87257 -0.467554,0.46755 -0.887992,4.45974 -1.086984,10.32123 l -0.32451,9.55876 2.507997,2.20205 c 2.279187,2.00115 2.834697,2.18168 6.088979,1.97877 L 92.011367,125 l 0.418264,2.33333 c 0.230046,1.28333 0.638633,2.63333 0.90797,3 0.269338,0.36667 0.657473,1.9849 0.862523,3.59608 0.20505,1.61118 0.67178,3.11418 1.037179,3.34001 0.365398,0.22583 0.870669,1.23259 1.122822,2.23725 0.252154,1.00466 0.791548,1.82666 1.198654,1.82666 0.407106,0 -0.929808,1.725 -2.970918,3.83333 -3.763444,3.88739 -6.580485,8.51004 -6.580485,10.79831 0,0.69148 -0.375,1.38247 -0.833333,1.53552 -1.099693,0.36721 -1.182165,17.18945 -0.09101,18.56423 0.408276,0.5144 0.942903,2.2483 1.18806,3.85312 0.245156,1.60482 0.886112,3.54657 1.424346,4.315 1.225494,1.74964 1.248882,3.74864 0.06379,5.45215 -3.53288,5.07834 -0.604467,15.64834 4.335365,15.64834 0.642087,0 1.35284,0.3 1.579453,0.66666 0.226612,0.36667 2.292023,0.66667 4.589803,0.66667 3.60216,0 4.39504,0.23126 5.75463,1.67848 3.37422,3.59169 8.32891,5.2474 15.81879,5.28617 3.75645,0.0194 6.83145,0.26035 6.83334,0.53535 0.005,0.76504 11.19947,0.59483 11.67682,-0.17754 z m -2.79126,-1.37367 c -0.42726,-0.42726 -4.37096,-0.60993 -10.45184,-0.48414 -5.37113,0.11111 -9.76522,-0.023 -9.76465,-0.29798 5.7e-4,-0.275 -0.73984,-0.5 -1.64536,-0.5 -1.92916,0 -5.96948,-2.11709 -8.39009,-4.39633 -1.29385,-1.21829 -2.44592,-1.60367 -4.79398,-1.60367 -1.69997,0 -3.288892,-0.32046 -3.530953,-0.71212 -0.242062,-0.39166 -0.850159,-0.55477 -1.351328,-0.36245 -0.501169,0.19232 -1.088529,0.0628 -1.305244,-0.28788 -0.216716,-0.35066 -0.884908,-0.63755 -1.484871,-0.63755 -4.410937,0 -6.334361,-8.0603 -3.261268,-13.66667 l 1.461715,-2.66667 -1.417394,-2.68418 c -0.779567,-1.47629 -1.639599,-4.17629 -1.911182,-5.99999 -0.271583,-1.82371 -0.832608,-3.72717 -1.246722,-4.22992 -1.010146,-1.22637 -1.037538,-14.23458 -0.0326,-15.48108 0.415994,-0.51599 0.96483,-1.91316 1.219637,-3.10483 0.254807,-1.19166 0.706926,-2.16666 1.00471,-2.16666 0.297783,0 0.726791,-0.73856 0.953349,-1.64124 0.422408,-1.68301 6.623446,-8.35876 7.764365,-8.35876 0.930006,0 0.830696,-0.32498 -1.345643,-4.40336 -1.08931,-2.04132 -2.173319,-4.73896 -2.408909,-5.99476 -0.235589,-1.2558 -0.694335,-2.44767 -1.019436,-2.64859 -0.325099,-0.20092 -0.59109,-1.81088 -0.59109,-3.57767 0,-2.04213 -0.36429,-3.51469 -1,-4.04229 -0.551248,-0.45749 -1,-0.53236 -1,-0.16683 0,3.65282 -9.607187,0.17811 -10.396968,-3.76036 -0.595672,-2.97049 0.259544,-15.00958 1.086508,-15.29503 0.354086,-0.12222 0.653774,-1.02222 0.665973,-2 0.107621,-8.62627 16.910771,-10.83634 23.062601,-3.03336 0.81639,1.0355 7.94541,0.61875 8.63997,-0.50507 0.19466,-0.31498 1.65371,-0.57268 3.24232,-0.57268 2.59241,0 2.93536,-0.18718 3.34684,-1.82666 0.25215,-1.00466 0.66661,-1.97966 0.921,-2.16666 0.2544,-0.18701 0.98753,-1.16501 1.62918,-2.17335 0.64165,-1.00833 1.60972,-1.83333 2.15127,-1.83333 0.54155,0 0.98463,-0.3 0.98463,-0.66667 0,-0.36666 0.225,-0.61822 0.5,-0.55901 0.275,0.0592 1.34453,-0.24079 2.37674,-0.66667 1.0322,-0.42587 3.33949,-0.77432 5.12732,-0.77432 1.78782,0 3.436,-0.3 3.66261,-0.66666 0.22661,-0.36667 2.52614,-0.66667 5.11006,-0.66667 4.16118,0 4.84145,-0.1823 5.95293,-1.59533 3.43797,-4.37067 7.73094,-5.162 13.04543,-2.40467 3.37044,1.74869 4.54531,2 9.35,2 5.6455,0 10.20825,2.24087 10.20825,5.01351 0,0.48146 0.375,1.00038 0.83333,1.15316 0.57465,0.19155 0.83333,1.94376 0.83333,5.64474 v 5.36696 l 3.91044,0.35459 c 2.15075,0.19502 4.23575,0.67989 4.63334,1.07748 0.39759,0.39759 2.75829,0.72289 5.246,0.72289 h 4.52311 l -0.41808,4 -0.41808,4 h 4.4296 4.4296 l -1.33463,2.49013 c -0.73405,1.36957 -1.33463,2.84457 -1.33463,3.27778 0,0.43321 -0.27782,0.88765 -0.61737,1.00987 -1.73579,0.62479 -1.48702,3.78951 0.39195,4.98629 1.04065,0.66283 2.04209,1.38395 2.22542,1.60249 0.18333,0.21855 0.91014,0.61095 1.61513,0.87199 1.23455,0.45714 1.2284,0.51204 -0.16666,1.48918 -0.79666,0.558 -1.44847,1.29787 -1.44847,1.64415 0,0.34628 -1.2,1.79416 -2.66667,3.21752 -1.46666,1.42335 -2.66666,2.88872 -2.66666,3.25638 0,0.95925 1.79303,4.28095 2.57004,4.76117 1.09886,0.67913 1.70242,4.05972 0.72482,4.05972 -0.46732,0 -1.32485,0.44842 -1.9056,0.99649 -0.58076,0.54807 -2.03093,1.77474 -3.2226,2.72593 -2.06861,1.65117 -2.16666,1.93794 -2.16666,6.33684 v 4.6074 h -3.25558 c -2.50688,0 -3.34567,0.26831 -3.64731,1.16667 -0.42506,1.26592 -1.8483,3.63112 -2.50726,4.16667 -0.22558,0.18333 -0.64101,1.08333 -0.92319,2 -0.28217,0.91666 -0.79535,1.84843 -1.1404,2.07058 -0.34505,0.22216 -0.79412,1.64716 -0.99793,3.16667 -0.20381,1.51951 -0.59231,2.76275 -0.86334,2.76275 -0.27102,0 -0.69642,1.8 -0.94532,4 -0.2489,2.2 -0.69931,4 -1.00091,4 -0.30159,0 -0.7508,1.26601 -0.99823,2.81335 -0.24743,1.54735 -0.66077,2.97235 -0.91853,3.16667 -0.88642,0.66824 -3.46867,4.63342 -3.46867,5.32631 0,0.38152 -0.36235,0.69367 -0.80522,0.69367 -0.44288,0 -1.86788,1.02286 -3.16667,2.27303 -2.00553,1.93044 -5.08582,3.84969 -11.16507,6.95667 -3.31531,1.69439 -7.42807,3.43696 -8.11177,3.43696 -0.42315,0 -1.29029,0.27938 -1.92698,0.62084 -3.71459,1.99215 -10.08967,4.7125 -11.04364,4.7125 -0.61269,0 -1.11398,0.27191 -1.11398,0.60425 0,0.33234 -0.6016,0.44693 -1.33689,0.25465 -0.73528,-0.19228 -1.73242,-0.0213 -2.21586,0.37988 -0.60263,0.50014 -1.0947,0.51376 -1.56513,0.0433 z m -35.54879,-11.94879 c 0,-0.36667 -0.39771,-0.66667 -0.88379,-0.66667 -2.295749,0 -3.774151,-2.87792 -2.660077,-5.17824 1.485303,-3.06681 5.215127,-6.15509 7.433727,-6.15509 1.01391,0 2.21096,-0.36749 2.66011,-0.81664 0.60483,-0.60483 1.1206,-0.62681 1.98855,-0.0848 0.64455,0.40253 2.21206,0.95466 3.48336,1.22695 1.2713,0.2723 2.61145,0.71908 2.97812,0.99285 0.36667,0.27377 1.56667,0.70233 2.66667,0.95236 1.1,0.25003 3.8,1.31729 6,2.37167 7.35471,3.52488 8.84978,4.02425 12.04826,4.02425 4.61559,0 8.09954,-5.96331 5.18608,-8.87677 -0.46366,-0.46363 -2.90101,2.03904 -2.90101,2.9788 0,0.31057 -0.45,0.56466 -1,0.56466 -0.55,0 -1,0.33674 -1,0.7483 0,0.51223 -0.2629,0.53651 -0.83333,0.077 -0.45834,-0.36922 -1.80655,-0.8794 -2.99603,-1.13373 -1.18948,-0.25432 -2.38948,-0.81397 -2.66667,-1.24364 -0.60054,-0.93094 -2.71341,-2.33309 -4.3373,-2.87835 -0.64167,-0.21547 -1.16667,-0.62424 -1.16667,-0.90839 0,-0.28415 -0.82199,-0.72295 -1.82666,-0.9751 -1.00466,-0.25216 -2.04371,-0.80968 -2.30901,-1.23894 -0.32709,-0.52923 -3.18063,-0.78048 -8.86433,-0.78048 -5.6837,0 -8.53724,0.25125 -8.86433,0.78048 -0.2653,0.42926 -1.30435,0.98678 -2.30901,1.23894 -1.00467,0.25215 -1.82666,0.72594 -1.82666,1.05285 0,0.32692 -0.3977,0.5944 -0.883785,0.5944 -4.215617,0 -7.637362,9.54865 -4.398392,12.27407 2.082495,1.7523 7.282177,2.50864 7.282177,1.05926 z m 55.50905,-8.77028 c 0.82002,-0.42366 1.94095,-1.02438 2.49095,-1.33493 0.55,-0.31055 1.69447,-0.8639 2.54326,-1.22966 4.29003,-1.84866 11.90975,-12.37679 13.14761,-18.16598 0.2547,-1.1912 0.80345,-2.58667 1.21945,-3.10105 1.35499,-1.67546 1.00545,-20.31425 -0.41032,-21.87972 -0.64167,-0.70952 -1.16667,-1.64141 -1.16667,-2.07087 0,-0.42946 -0.41326,-0.78084 -0.91837,-0.78084 -0.5051,0 -1.29183,-0.45 -1.74829,-1 -0.55053,-0.66335 -2.04389,-1 -4.43589,-1 -2.5903,0 -3.71404,0.28166 -3.9897,1 -0.21105,0.55 -0.77056,1 -1.24334,1 -0.47279,0 -1.79963,1.125 -2.94854,2.5 -1.1489,1.375 -2.82998,3.30587 -3.73572,4.29082 -0.90575,0.98494 -1.64681,2.06345 -1.64681,2.39667 0,0.33322 -0.6,1.14885 -1.33334,1.81251 -0.73333,0.66366 -1.33333,1.47448 -1.33333,1.80182 0,0.32735 -0.75,1.29025 -1.66667,2.13979 -0.91666,0.84954 -1.66666,1.74736 -1.66666,1.99516 0,0.60859 -2.87288,4.6734 -3.5,4.95212 -0.275,0.12222 -0.5,0.5249 -0.5,0.89484 0,1.54214 -2.3522,3.6126 -3.66667,3.22749 -2.12823,-0.62352 -5,-2.18153 -5,-2.71263 0,-0.26806 -0.82199,-0.69369 -1.82666,-0.94584 -1.00466,-0.25216 -2.01755,-0.76735 -2.25087,-1.14487 -0.74247,-1.20133 -6.40502,-1.48067 -8.07608,-0.39841 -3.94125,2.55257 -9.84639,1.67379 -9.84639,-1.46529 0,-0.65455 -0.31662,-0.59763 -1.21916,0.21916 -0.67054,0.60683 -1.57054,1.10332 -2,1.10332 -0.42946,0 -0.78084,0.3 -0.78084,0.66667 0,1.56586 -5.44836,-0.62304 -8.36051,-3.35886 -2.052979,-1.92868 -6.356827,-1.61874 -7.29757,0.52553 -0.361947,0.825 -0.886947,1.5 -1.166666,1.5 -0.713289,0 -0.638198,4.50787 0.08251,4.95329 0.3251,0.20092 0.79858,1.49363 1.052177,2.87268 0.513672,2.79333 3.311078,6.17403 5.108781,6.17403 0.643088,0 1.354668,0.3 1.581278,0.66666 0.22661,0.36667 0.99432,0.66667 1.70601,0.66667 0.7117,0 1.29399,-0.3 1.29399,-0.66667 0,-0.36666 0.39387,-0.66666 0.87527,-0.66666 0.4814,0 1.71628,-0.87782 2.74418,-1.95072 l 1.8689,-1.95071 1.45625,1.57132 c 0.80094,0.86423 2.34106,1.78681 3.42249,2.05018 1.08144,0.26337 2.558,0.8841 3.28125,1.37939 0.72325,0.4953 1.97325,0.90054 2.77778,0.90054 0.80452,0 1.56277,0.2859 1.68499,0.63535 0.12222,0.34944 1.49722,0.83778 3.05556,1.0852 l 2.83333,0.44986 v -2.3792 c 0,-1.30855 0.3,-2.5646 0.66667,-2.79121 0.36666,-0.22662 0.66666,-1.87662 0.66666,-3.66667 0,-4.37768 0.68705,-4.54103 4.22386,-1.00421 1.65232,1.65231 3.21654,3.00421 3.47604,3.00421 0.25951,0 1.63406,1.05 3.05456,2.33333 1.42049,1.28334 3.19624,2.33334 3.94611,2.33334 1.57114,0 4.58057,3.12839 4.6117,4.79399 0.0116,0.62002 0.32107,1.31273 0.68773,1.53934 0.36667,0.22661 0.66667,0.93737 0.66667,1.57945 0,3.10704 4.7738,6.0634 7.50905,4.65027 z m -18.17572,-4.22972 c 0.45646,-0.55 1.2432,-1 1.7483,-1 0.5051,0 0.91837,-0.45 0.91837,-1 0,-0.55 0.3,-1 0.66667,-1 1.50223,0 0.47978,-1.07855 -2.17432,-2.29364 -3.21143,-1.47025 -7.15902,-4.87273 -7.15902,-6.17047 0,-1.08658 -0.81894,-1.11695 -1.86666,-0.0692 -0.9704,0.97039 -1.05485,3.63047 -0.13334,4.2 0.36667,0.22661 0.67077,1.51931 0.67577,2.87267 0.0175,4.73523 0.5029,5.46066 3.65369,5.46066 1.71169,0 3.17045,-0.39742 3.67054,-1 z m -41.999991,-4 c 0.45646,-0.55 1.20646,-1 1.666667,-1 2.330094,0 2.492564,-2.00171 0.248241,-3.05848 -4.461144,-2.10059 -5.248241,-2.6032 -5.248241,-3.35131 0,-0.41816 -0.487482,-1.16486 -1.083293,-1.65934 -0.985749,-0.8181 -1.040881,-0.57032 -0.612278,2.75171 0.841659,6.52354 2.807896,8.99357 5.028904,6.31742 z m 22.666661,-21.66667 c 0,-0.36666 0.76771,-0.66666 1.70601,-0.66666 0.96758,0 1.52767,-0.28856 1.29399,-0.66667 -0.61695,-0.99824 -4.29214,-0.8031 -5.38095,0.28572 -1.3462,1.34619 -1.19283,1.71428 0.71428,1.71428 0.91667,0 1.66667,-0.3 1.66667,-0.66667 z m -12,-1.25557 c 0,-0.67616 -2.76837,-1.53161 -3.28491,-1.01507 -0.43113,0.43113 1.33627,1.58011 2.45158,1.59377 0.45833,0.006 0.83333,-0.2548 0.83333,-0.5787 z m 34.13019,-5.86915 c 1.02839,-0.98527 1.86981,-2.18527 1.86981,-2.66667 0,-0.4814 0.3,-0.87527 0.66667,-0.87527 0.36666,0 0.66666,-0.41327 0.66666,-0.91837 0,-0.50511 0.41862,-1.26579 0.93027,-1.69042 0.51164,-0.42463 1.12523,-1.81136 1.36354,-3.08163 0.2383,-1.27027 0.70609,-2.30958 1.03953,-2.30958 0.33343,0 0.80385,-1.05332 1.04536,-2.3407 0.24152,-1.28738 0.70511,-2.50509 1.03021,-2.70601 0.3251,-0.20092 0.59109,-0.94761 0.59109,-1.6593 0,-1.84127 -2.53035,-1.68558 -3.34824,0.20601 -0.35671,0.825 -0.92764,1.95 -1.26873,2.5 -0.34109,0.55 -0.78989,1.45 -0.99735,2 -1.74473,4.6256 -7.09239,9.02661 -8.84212,7.27689 -1.22856,-1.22856 -3.85321,-0.44365 -4.08992,1.22311 -0.11717,0.825 0.0753,1.5 0.42772,1.5 0.35242,0 0.83545,0.77568 1.0734,1.72373 1.00752,4.01432 4.66479,4.86226 7.8421,1.81821 z m 47.54506,-0.82406 c 0.36194,-0.70516 2.38308,-4.64427 4.49142,-8.75357 2.10833,-4.1093 3.83333,-8.00735 3.83333,-8.66233 0,-0.65498 0.375,-1.3161 0.83333,-1.46915 1.04036,-0.34741 1.077,-17.05144 0.0389,-17.729 -0.36839,-0.24044 -0.85718,-1.63891 -1.0862,-3.10771 -0.96566,-6.19331 -3.92813,-10.01661 -8.30345,-10.71625 -3.31242,-0.52968 -3.67835,0.31784 -1.14925,2.66174 0.91667,0.84954 1.66667,1.83872 1.66667,2.19818 0,0.35946 0.6,1.19655 1.33333,1.86021 0.73334,0.66366 1.33334,1.61015 1.33334,2.10332 0,0.49318 0.26747,0.89668 0.59439,0.89668 0.32692,0 0.8007,0.82199 1.05286,1.82665 0.25215,1.00467 0.80645,2.04173 1.23177,2.30459 1.04537,0.64607 1.073,15.30517 0.0313,16.59727 -0.41599,0.51599 -0.96483,1.91316 -1.21964,3.10482 -0.2548,1.19167 -0.70606,2.16667 -1.00278,2.16667 -0.29673,0 -0.73083,1.01985 -0.96467,2.26634 -0.23385,1.24649 -0.86723,2.63323 -1.40753,3.08163 -0.5403,0.44841 -0.98236,1.22855 -0.98236,1.73366 0,0.5051 -0.3,0.91837 -0.66667,0.91837 -0.36666,0 -0.66666,0.31215 -0.66666,0.69366 0,0.8794 -2.72944,4.79991 -3.83334,5.50613 -1.57154,1.0054 -0.8319,1.80021 1.67525,1.80021 1.80261,0 2.69378,-0.36082 3.16667,-1.28212 z m 8.32475,-1.82121 c 0,-2.31836 -0.0592,-2.38309 -1.21916,-1.33333 -0.67054,0.60683 -1.57054,1.10332 -2,1.10332 -0.42946,0 -0.78084,0.6 -0.78084,1.33334 0,1.03703 0.44444,1.33333 2,1.33333 1.85742,0 2,-0.1737 2,-2.43666 z m 6,-11.1972 c 0,-4.22714 -3.01714,-3.58479 -3.71626,0.79119 l -0.45117,2.824 2.08372,-1.03949 c 1.43025,-0.71351 2.08371,-1.52125 2.08371,-2.5757 z m -71.66667,0.35558 c 1.46667,-0.77412 3.25323,-1.77819 3.97015,-2.23127 1.85017,-1.16929 13.69652,-12.89478 13.69652,-13.55679 0,-0.70953 5.44379,-6.26699 6.13881,-6.26699 0.29032,0 0.52786,0.54 0.52786,1.2 0,0.66 0.27691,1.485 0.61537,1.83333 0.33845,0.34834 0.71345,1.53334 0.83333,2.63334 l 0.21796,2 h 6.80023 c 4.55141,0 7.07573,-0.27559 7.63333,-0.83334 0.45821,-0.45833 1.31698,-0.83333 1.90838,-0.83333 2.75351,0 6.65806,-6.58344 6.65806,-11.22613 0,-4.775 -4.24404,-8.02628 -6.66666,-5.1072 -0.45646,0.55 -1.2432,1 -1.7483,1 -0.5051,0 -0.91837,0.3977 -0.91837,0.88379 0,2.13602 -6.78238,6.44954 -10.14096,6.44954 -1.02247,0 -1.85904,-0.26748 -1.85904,-0.5944 0,-0.32691 -0.75763,-0.78454 -1.68362,-1.01695 -1.66936,-0.41898 -4.31259,-2.59409 -4.32049,-3.55532 -0.002,-0.275 -0.44104,-1.33767 -0.97507,-2.36149 -0.53403,-1.02382 -1.16619,-2.90214 -1.4048,-4.17403 -0.23861,-1.2719 -0.67372,-2.4608 -0.96692,-2.642 -0.2932,-0.18121 -0.72551,-1.46844 -0.9607,-2.86052 -0.93441,-5.53073 -10.82081,-9.26288 -14.57977,-5.50392 -0.38975,0.38975 -1.14077,0.70863 -1.66894,0.70863 -2.90527,0 -12.77302,6.8982 -12.77302,8.92917 0,0.35836 -0.58007,1.2709 -1.28905,2.02786 -0.70897,0.75697 -1.75239,2.2717 -2.31871,3.36608 l -1.02967,1.98978 -0.42829,-2.14149 c -0.48684,-2.4342 -2.29543,-4.39965 -2.76492,-3.00473 -0.15426,0.45833 -0.99624,0.83333 -1.87106,0.83333 -3.58216,0 -9.60923,4.52882 -10.64659,8 -0.27395,0.91667 -0.812193,1.86808 -1.196107,2.11426 -0.40717,0.26108 -0.698025,3.13025 -0.698025,6.88574 0,3.75548 0.290855,6.62465 0.698025,6.88574 0.383914,0.24618 0.928037,1.1836 1.209157,2.08317 1.51185,4.83767 10.94085,8.42004 11.04876,4.19776 0.0549,-2.14675 1.16292,-5.19443 1.23962,-3.40954 0.31765,7.39253 11.61234,11.57381 19.71352,7.29792 z m 74.32572,-13.86988 c 1.66093,-1.42213 1.71015,-2.18517 0.14095,-2.18517 -0.66,0 -1.56,-0.36 -2,-0.8 -0.62222,-0.62222 -0.8,-0.25185 -0.8,1.66667 0,2.72433 0.64413,3.04373 2.65905,1.3185 z M 88.969573,117.85166 c 0.570792,-0.81492 1.037803,-2.16492 1.037803,-3 0,-0.83508 0.266613,-1.51833 0.592473,-1.51833 0.32586,0 0.783798,-1.01986 1.017641,-2.26635 0.54715,-2.91655 1.99393,-4.22552 3.389886,-3.06698 1.150843,0.95511 3,-0.12251 3,-1.7483 0,-0.5051 0.265011,-0.91837 0.588912,-0.91837 0.323902,0 0.763319,-0.66693 0.976482,-1.48207 0.4526,-1.73077 -1.794341,-4.51793 -3.642259,-4.51793 -0.647778,0 -1.363189,-0.3 -1.589802,-0.66667 -2.284307,-3.69608 -7.766978,1.28806 -8.213926,7.46706 -0.154662,2.13817 -0.544799,4.05049 -0.866972,4.24961 -0.322172,0.19911 -0.585768,2.29432 -0.585768,4.65601 0,4.79094 1.994858,6.09699 4.29553,2.81232 z m 116.617607,-2.01833 c 0.62263,-2.32333 0.53454,-2.5 -1.24648,-2.5 -1.03703,0 -1.66666,0.37778 -1.66666,1 0,0.55 0.3,1 0.66666,1 0.36667,0 0.66667,0.45 0.66667,1 0,1.54075 1.12864,1.18354 1.57981,-0.5 z m -37.93634,-4.56906 c 1.29609,-1.13799 2.35653,-2.46299 2.35653,-2.94445 0,-0.48146 0.225,-0.97538 0.5,-1.0976 0.73022,-0.32454 3.5,-4.3919 3.5,-5.13967 0,-0.35096 0.29706,-0.73811 0.66013,-0.86033 C 177.27129,100.34569 175.73999,90 173.00647,90 c -1.54017,0 -4.9991,2.10951 -4.9991,3.04882 0,1.93122 -1.86278,0.89166 -2.26744,-1.26538 -0.92044,-4.90635 -8.47273,-8.40022 -11.74889,-5.43533 -1.39942,1.26646 -1.97883,9.16417 -0.72899,9.93661 0.3234,0.19987 0.80291,2.39258 1.06558,4.87267 0.26267,2.4801 0.7067,4.80927 0.98673,5.17594 0.28004,0.36667 0.70816,1.4993 0.95138,2.51696 1.1787,4.93186 7.0899,6.18521 11.3851,2.41398 z m 32.11393,-7.06243 c -0.27311,-0.27311 -0.77566,-0.0553 -1.11677,0.48413 -1.02645,1.62305 -0.71857,2.34435 0.48635,1.13942 0.61985,-0.61984 0.90353,-1.35044 0.63042,-1.62355 z M 46.507376,230.31866 c -0.641667,-0.86321 -1.166667,-1.77997 -1.166667,-2.03725 0,-0.25727 -0.525,-0.85166 -1.166666,-1.32086 -1.239731,-0.90653 0.977603,-4.29389 2.810737,-4.29389 0.409742,0 2.035512,-1.31495 3.612822,-2.92211 4.216456,-4.29626 2.198758,-4.51766 -2.608402,-0.28623 -5.420266,4.77112 -5.82705,4.85308 -8.457962,1.70408 -2.580975,-3.08923 -0.996838,-7.67897 2.695441,-7.80953 0.303951,-0.0108 2.253951,-1.44454 4.333334,-3.18621 2.079383,-1.74167 4.264231,-3.46667 4.855219,-3.83333 5.439983,-3.37514 8.853646,-7 6.592144,-7 -0.733333,0 -1.333333,0.29058 -1.333333,0.64574 0,0.35516 -0.470239,0.4653 -1.044974,0.24475 -0.574736,-0.22055 -1.699736,-0.0883 -2.5,0.2938 -2.610767,1.24669 -4.102343,1.68964 -5.2293,1.55293 -0.609183,-0.0739 -1.301889,0.18 -1.539344,0.56421 -0.237456,0.38421 -1.164033,0.69857 -2.05906,0.69857 -0.895027,0 -1.627322,0.29058 -1.627322,0.64574 0,0.35516 -0.419655,0.48471 -0.932567,0.28788 -0.512911,-0.19682 -1.130616,-0.0374 -1.372678,0.35426 -0.242061,0.39166 -1.304701,0.71212 -2.361422,0.71212 -1.056721,0 -2.109745,0.30489 -2.340054,0.67754 -0.230309,0.37265 -0.685811,0.51248 -1.012227,0.31075 -0.326415,-0.20174 -1.165946,-0.009 -1.865624,0.42767 -1.784032,1.11415 -3.448762,0.27985 -3.448762,-1.72837 0,-0.92818 -0.276163,-1.68759 -0.613696,-1.68759 -0.337533,0 -0.822175,-0.975 -1.076982,-2.16667 -0.254807,-1.19167 -0.734966,-2.50502 -1.06702,-2.91857 -0.394057,-0.49077 -0.19367,-0.89326 0.576981,-1.1589 0.649395,-0.22385 2.080717,-1.00719 3.180717,-1.74075 1.1,-0.73357 2.375,-1.51916 2.833334,-1.74576 0.458333,-0.2266 0.833333,-0.67991 0.833333,-1.00735 0,-0.76838 -2.208703,-0.77317 -3.033333,-0.007 -0.348334,0.32382 -2.022506,0.78683 -3.720383,1.02891 l -3.087049,0.44014 -0.434057,-2.31372 c -0.238732,-1.27255 -0.748018,-2.41838 -1.131749,-2.54629 -1.743204,-0.58106 -0.974256,-4.75108 1.073238,-5.82018 1.1,-0.57436 2.15,-1.21618 2.333333,-1.42625 0.183333,-0.21008 0.783333,-0.59107 1.333333,-0.84665 0.55,-0.25558 2.2,-1.20151 3.666667,-2.10206 1.466667,-0.90055 3.191667,-1.82955 3.833333,-2.06444 0.641667,-0.23446 1.166667,-0.65913 1.166667,-0.94328 0,-0.28415 0.821995,-0.72295 1.826655,-0.9751 1.004661,-0.25215 1.979661,-0.6954 2.166667,-0.985 0.187006,-0.28959 2.048106,-1.43425 4.135777,-2.54368 l 3.795765,-2.01715 0.433735,1.97478 c 0.238554,1.08613 0.840106,2.75806 1.336782,3.71541 0.989079,1.90645 0.74822,2.83622 -0.734726,2.83622 -0.52836,0 -0.960655,0.27617 -0.960655,0.6137 0,0.33753 -0.9,0.81137 -2,1.05297 -1.1,0.2416 -2,0.6916 -2,1 0,0.3084 -0.9,0.7584 -2,1 -1.1,0.2416 -2,0.73927 -2,1.10594 0,0.71039 3.826361,0.12458 5,-0.76549 2.485043,-1.88462 6.904181,-1.41054 7.979746,0.85604 1.848564,3.89556 1.659182,5.88671 -0.634508,6.67118 -1.093452,0.37397 -2.361784,1.05364 -2.818514,1.51037 -0.456731,0.45673 -1.737088,1.23175 -2.845238,1.72226 -2.312214,1.02349 -2.626541,1.8997 -0.681486,1.8997 0.733333,0 1.333333,-0.28967 1.333333,-0.6437 0,-0.35404 1.506734,-0.84358 3.348297,-1.08788 1.841563,-0.24429 3.509268,-0.70462 3.706011,-1.02296 0.786288,-1.27224 2.011459,-0.42213 3.260232,2.26219 0.722997,1.55413 2.897997,4.65895 4.833334,6.89962 1.935336,2.24066 3.518793,4.29334 3.518793,4.56151 0,0.26817 0.6,1.25036 1.333333,2.18264 3.33275,4.2369 -1.197575,12.84858 -6.759224,12.84858 -1.302939,0 -1.907442,0.33758 -1.907442,1.06518 0,1.09366 -6.504116,7.56886 -7.6237,7.58981 -0.343034,0.006 -1.243034,0.58651 -2,1.28908 -1.360004,1.26228 -1.390115,1.25882 -2.542967,-0.29207 z M 60.137563,212.2086 c 2.03743,-1.95198 2.356791,-2.87527 0.99454,-2.87527 -1.147586,0 -4.609976,3.62586 -4.02295,4.21288 0.713406,0.71341 1.03661,0.57065 3.02841,-1.33761 z M 44.007376,194.66666 c 0,-0.36667 -0.132295,-0.66667 -0.293989,-0.66667 -0.161693,0 -0.479399,0.3 -0.706011,0.66667 -0.226612,0.36667 -0.09432,0.66667 0.293989,0.66667 0.388306,0 0.706011,-0.3 0.706011,-0.66667 z m -8,-2.66667 c 0,-0.36666 -0.3,-0.66666 -0.666667,-0.66666 -0.366666,0 -0.666666,0.3 -0.666666,0.66666 0,0.36667 0.3,0.66667 0.666666,0.66667 0.366667,0 0.666667,-0.3 0.666667,-0.66667 z m 3.333333,-8 c 0,-0.36666 -0.3,-0.66666 -0.666666,-0.66666 -0.366667,0 -0.666667,0.3 -0.666667,0.66666 0,0.36667 0.3,0.66667 0.666667,0.66667 0.366666,0 0.666666,-0.3 0.666666,-0.66667 z m 202.666661,35.66667 c -0.45646,-0.55 -1.24319,-1 -1.7483,-1 -0.5051,0 -0.91837,-0.26501 -0.91837,-0.58891 0,-0.32391 -0.525,-0.7787 -1.16666,-1.01066 -1.6138,-0.58337 -4.26278,-2.16502 -4.75673,-2.84014 -0.5185,-0.70866 -2.63113,-2.03753 -4.57661,-2.87872 -0.825,-0.35671 -1.5,-0.92101 -1.5,-1.25398 0,-0.33298 -0.525,-0.7817 -1.16666,-0.99715 -0.64167,-0.21545 -1.76667,-0.77544 -2.5,-1.24442 -0.73334,-0.46898 -1.4137,-0.88305 -1.51193,-0.92017 -0.21729,-0.0821 1.0959,-2.5168 2.90972,-5.39474 l 1.34174,-2.12889 1.96356,1.60492 c 1.07997,0.8827 2.2204,1.6157 2.5343,1.62888 0.31391,0.0132 1.66509,0.84898 3.00264,1.85731 2.94605,2.22094 4.56329,3.25339 6.75997,4.3156 0.91666,0.44326 2.59498,1.49108 3.72959,2.32849 1.13461,0.83742 2.43461,1.52258 2.88889,1.52258 1.16828,0 0.54707,-1.43591 -0.98886,-2.28571 -0.71007,-0.39286 -2.37524,-1.53126 -3.70039,-2.52978 -1.32516,-0.99851 -2.60134,-1.62351 -2.83597,-1.38889 -0.23463,0.23463 -0.4266,0.11159 -0.4266,-0.27342 0,-0.38501 -0.525,-0.88981 -1.16666,-1.12177 -1.6138,-0.58337 -4.26278,-2.16502 -4.75673,-2.84014 -0.5185,-0.70866 -2.63113,-2.03753 -4.57661,-2.87871 -1.84362,-0.79716 -1.8704,-1.36422 -0.16666,-3.53016 0.73333,-0.93228 1.33333,-1.98601 1.33333,-2.34161 0,-2.01051 2.03488,-2.27479 4.28728,-0.5568 1.25973,0.96084 2.49227,1.74699 2.73897,1.74699 0.2467,0 1.54172,0.83818 2.87781,1.86262 1.3361,1.02444 3.17927,2.23911 4.09594,2.69926 8.52728,4.28062 10.9633,7.03803 10.46689,11.84781 -0.68352,6.62264 -9.21888,12.50393 -12.46689,8.59031 z m 16.37258,-21.35454 c -0.71175,-0.53833 -1.84082,-0.97879 -2.50905,-0.97879 -0.66822,0 -1.73588,-0.28071 -2.37258,-0.62379 -2.72202,-1.46677 -5.62371,-2.63247 -7.65091,-3.07362 -1.19535,-0.26013 -2.76513,-0.88463 -3.48838,-1.38778 -0.72325,-0.50315 -1.99825,-0.91481 -2.83333,-0.91481 -0.83508,0 -1.51833,-0.26662 -1.51833,-0.59248 0,-0.32586 -1.07979,-0.79504 -2.39953,-1.04262 -2.65375,-0.49785 -2.82605,-2.53005 -0.57965,-6.83674 0.53403,-1.02382 0.97281,-2.34976 0.97507,-2.94653 0.002,-0.59677 0.45411,-1.45851 1.00411,-1.91497 0.55,-0.45646 1.0019,-1.16819 1.00422,-1.58163 0.01,-1.75578 6.06272,-3.92809 6.94907,-2.49394 0.20092,0.3251 1.42925,0.79068 2.72961,1.03463 1.93855,0.36368 2.43507,0.79745 2.75736,2.40891 0.43937,2.19683 1.00194,2.44076 2.22641,0.96537 0.91276,-1.09982 3.70261,-1.35387 4.29748,-0.39134 0.20689,0.33476 1.53777,0.80491 2.95751,1.04477 4.66452,0.78806 7.93336,6.23982 5.53193,9.22612 -0.34813,0.43291 -0.85224,1.83711 -1.12026,3.12045 -0.26801,1.28333 -0.71801,2.63333 -1,3 -0.28198,0.36666 -0.72118,1.64166 -0.97599,2.83333 -0.51071,2.38849 -1.83719,2.7698 -3.98476,1.14546 z m 0.96075,-9.81605 c 0,-0.87416 -2.36925,-2.10806 -5.5,-2.86439 -1.42368,-0.34393 -1.83333,-0.2033 -1.83333,0.62937 0,0.58975 0.525,1.08182 1.16667,1.09348 0.64166,0.0117 1.749,0.46166 2.46075,1 1.58472,1.19862 3.70591,1.27963 3.70591,0.14154 z m -12,-4.21036 c 0,-0.81446 -1.7643,-2.08202 -3.5066,-2.51931 -2.1171,-0.53135 -2.49007,0.58306 -0.66006,1.97223 1.15968,0.88032 4.16666,1.27514 4.16666,0.54708 z M 28.007376,160.79999 c 0,-0.44 -0.403504,-0.8 -0.896675,-0.8 -2.886112,0 -4.345103,-5.52286 -2.111111,-7.99139 1.748702,-1.9323 7.674453,-1.62152 7.674453,0.40248 0,0.50724 0.3,0.92225 0.666666,0.92225 0.366667,0 0.666667,1.0035 0.666667,2.23001 0,2.30965 -1.639203,4.43665 -3.41916,4.43665 -0.539462,0 -1.34084,0.36 -1.78084,0.8 -0.622222,0.62223 -0.8,0.62223 -0.8,0 z m 227.999994,0 c 0,-0.44 -0.4035,-0.8 -0.89667,-0.8 -1.49818,0 -3.32555,-2.5643 -3.32555,-4.66666 0,-2.51621 1.92259,-4.66933 4.15888,-4.65757 2.7584,0.0145 4.73001,0.73785 4.73001,1.73532 0,0.50724 0.3,0.92225 0.66666,0.92225 0.36667,0 0.66667,1.0035 0.66667,2.23001 0,2.30965 -1.6392,4.43665 -3.41916,4.43665 -0.53946,0 -1.34084,0.36 -1.78084,0.8 -0.62222,0.62223 -0.8,0.62223 -0.8,0 z m -13.14821,-20.25787 c -1.48481,-1.81874 -1.34518,-7.87634 0.18154,-7.87587 0.75167,2.3e-4 1.65167,-0.28065 2,-0.62417 0.34834,-0.34352 1.98334,-0.71851 3.63334,-0.83333 2.7326,-0.19015 3.01913,-0.3756 3.21466,-2.08062 l 0.21467,-1.87187 -4.21467,0.45275 c -2.31806,0.24902 -4.49966,0.71636 -4.848,1.03854 -1.03049,0.95312 -1.7,0.67421 -1.7,-0.70821 0,-0.71169 -0.3,-1.4794 -0.66666,-1.70601 -0.36667,-0.22661 -0.66667,-1.41247 -0.66667,-2.63524 v -2.22321 l 6.16667,-0.47789 c 3.39166,-0.26284 6.46666,-0.71149 6.83333,-0.99699 0.36667,-0.28551 3.51667,-0.73551 7,-1 3.48333,-0.2645 6.6672,-0.7503 7.07526,-1.07956 0.82171,-0.66302 1.59141,3.45096 1.59141,8.50594 0,1.59882 0.3,2.90695 0.66666,2.90695 0.36667,0 0.66667,0.45 0.66667,1 0,0.55 -0.2625,1 -0.58333,1 -0.32084,0 -0.75801,0.87334 -0.97149,1.94077 -0.2974,1.48701 -0.86242,2.04493 -2.41667,2.3863 -1.11568,0.24504 -2.02851,0.7217 -2.02851,1.05923 0,1.01686 -3.92993,0.69035 -5.7072,-0.47417 -1.53888,-1.00831 -1.75051,-1.00623 -2.89386,0.0285 -0.67846,0.614 -2.32806,1.29397 -3.66578,1.51105 -1.33771,0.21708 -2.59262,0.65426 -2.78869,0.97151 -0.19607,0.31724 -1.22388,0.57681 -2.28402,0.57681 -1.06014,0 -2.18997,0.46895 -2.51073,1.04212 -0.47521,0.84916 -0.71555,0.88002 -1.29793,0.16667 z m 20.36124,-12.70879 c -0.34381,-2.42082 -5.21303,-2.61408 -5.21303,-0.20691 0,1.55181 0.24652,1.70691 2.71303,1.70691 2.4322,0 2.69099,-0.15527 2.5,-1.5 z M 35.340709,134 c 0,-3.27649 0.03492,-3.33334 2.047619,-3.33334 2.042658,0 3.952381,-1.26548 3.952381,-2.61905 0,-2.25289 -5.119408,-0.64394 -8.333333,2.61905 C 31.20161,132.5 29.205593,134 28.571782,134 c -0.633811,0 -1.337794,0.3 -1.564406,0.66666 -0.226612,0.36667 -0.994318,0.66667 -1.706011,0.66667 -0.711694,0 -1.293989,-0.3 -1.293989,-0.66667 C 24.007376,134.3 23.428805,134 22.721662,134 c -0.707143,0 -1.735715,-0.45 -2.285715,-1 -0.55,-0.55 -1.288041,-1 -1.640091,-1 -2.296351,0 -1.45225,-9.44851 1.051389,-11.7688 2.434899,-2.25659 8.170556,-2.30207 8.138929,-0.0645 -0.02473,1.74972 -1.437894,3.8333 -2.599912,3.8333 -0.999171,0 -2.712219,1.6542 -2.712219,2.61904 0,1.9542 4.29437,0.64591 6.955635,-2.11904 4.33195,-4.50074 10.377698,-7.12231 10.377698,-4.5 0,0.36666 0.556193,0.66666 1.235985,0.66666 4.181037,0 7.442259,10.78151 3.866516,12.7826 -0.606376,0.33934 -1.102501,1.05208 -1.102501,1.58386 0,0.53178 -0.582295,0.96688 -1.293989,0.96688 -0.711693,0 -1.479399,0.3 -1.706011,0.66666 -0.226612,0.36667 -1.594318,0.66667 -3.039345,0.66667 h -2.627322 z m 10.666667,-13.14371 c 0,-0.41952 -1.35,-1.43698 -3,-2.26103 -1.65,-0.82405 -3,-1.74509 -3,-2.04677 0,-0.30167 -0.331829,-0.54849 -0.737397,-0.54849 -0.405569,0 -1.84841,-0.87994 -3.206315,-1.95542 -1.357905,-1.07548 -3.276076,-2.15801 -4.262603,-2.40561 -0.986527,-0.2476 -1.793685,-0.72708 -1.793685,-1.0655 0,-0.33843 -0.525,-0.8015 -1.166667,-1.02906 -0.641666,-0.22756 -1.617335,-0.79737 -2.168153,-1.26625 -0.550817,-0.46888 -1.900817,-1.32143 -3,-1.89456 -1.099182,-0.57313 -1.623513,-1.0439 -1.16518,-1.04616 0.458333,-0.002 0.833333,-0.63282 0.833333,-1.40125 0,-0.76843 0.525,-2.29641 1.166667,-3.39553 l 1.166667,-1.99839 7,0.46847 c 3.85,0.25765 7.15,0.7031 7.333333,0.98989 0.183333,0.28678 3.258333,0.73963 6.833333,1.00634 6.536138,0.48761 8.066045,0.01 5,-1.56179 -1.719721,-0.88146 -3.324789,-1.87038 -6.166666,-3.79942 -1.1,-0.74667 -2.75,-1.7343 -3.666667,-2.19473 -2.309818,-1.16021 -4.019995,-2.20613 -6.387827,-3.90671 -1.114758,-0.80062 -2.80802,-1.65174 -3.762803,-1.89137 l -1.735971,-0.4357 1.596158,-2.77529 c 0.877887,-1.52642 1.787362,-3.3003 2.021055,-3.94196 0.233693,-0.64167 0.689907,-1.16667 1.013809,-1.16667 0.323902,0 0.588912,-0.39115 0.588912,-0.86922 0,-5.50002 7.725588,-6.36863 12.529614,-1.40874 2.960876,3.05693 3.890863,3.6503 5.204398,3.32063 0.879627,-0.22077 1.599322,-0.13068 1.599322,0.20021 0,0.33089 0.525,0.7389 1.166666,0.9067 0.641667,0.1678 1.466667,0.38144 1.833334,0.47475 0.366666,0.0933 0.816666,0.36601 1,0.606 0.700937,0.91754 3.414281,2.13166 3.981052,1.78138 0.788203,-0.48714 1.690082,1.016 0.937691,1.56283 -0.78298,0.56905 -2.197831,2.81528 -2.682519,4.25879 -0.584322,1.74024 -2.035004,1.34741 -6.154731,-1.66666 -1.940767,-1.4199 -4.303485,-1.50575 -5.39059,-0.19587 -0.871389,1.04996 -0.328016,2.62897 0.688496,2.00073 0.34133,-0.21095 0.620601,-0.10084 0.620601,0.2447 0,0.34555 0.525,0.81805 1.166666,1.05 0.641667,0.23196 1.766667,0.7958 2.5,1.25297 0.733334,0.45717 1.92709,1.17778 2.652791,1.60135 1.228769,0.7172 1.244391,0.85407 0.227283,1.99146 -1.602558,1.79206 -4.371277,7.23812 -4.897253,9.63287 -0.441955,2.01221 -0.551293,2.06869 -3.386427,1.74913 -2.428564,-0.27374 -2.929727,-0.13896 -2.929727,0.78788 0,0.61496 -0.375,1.49831 -0.833333,1.96299 -0.925597,0.93842 0.866649,2.75512 2.718035,2.75512 1.267074,0 0.551153,5.84986 -0.892614,7.29362 -0.611082,0.61109 -0.992088,0.69916 -0.992088,0.22934 z m -6,-13.10629 c 0,-1.24 -0.451754,-1.67369 -2.083333,-2 -2.921668,-0.58434 -3.916667,-0.52083 -3.916667,0.25 0,0.36666 0.327681,0.66666 0.72818,0.66666 0.4005,0 1.490957,0.6 2.42324,1.33334 2.20972,1.73816 2.84858,1.68209 2.84858,-0.25 z m 3.737306,-25.47299 c -0.40096,-1.04488 -2.896638,-1.24466 -4.315995,-0.34549 -0.980393,0.62108 0.27821,2.23774 2.970522,3.81561 1.357786,0.79575 2.17432,-1.31017 1.345473,-3.47012 z M 239.3407,118.33333 c 0,-0.55 -0.2864,-1 -0.63645,-1 -0.35006,0 -0.83407,-1.05331 -1.07558,-2.3407 -0.24151,-1.28738 -0.679,-2.48895 -0.9722,-2.67016 -0.2932,-0.1812 -0.73529,-1.52632 -0.98243,-2.98914 -0.24715,-1.46282 -0.72325,-2.82896 -1.05801,-3.03585 -0.95928,-0.59287 -0.7102,-1.63082 0.39134,-1.63082 0.55,0 1,-0.26593 1,-0.59097 0,-0.32503 1.35,-0.79341 3,-1.04085 1.65,-0.24743 3,-0.69743 3,-1 0,-0.30256 1.35,-0.75256 3,-1 1.65,-0.24743 3,-0.73149 3,-1.07569 0,-0.3442 0.68325,-0.62582 1.51833,-0.62582 0.83508,0 2.1254,-0.42521 2.86738,-0.94491 0.74198,-0.5197 2.46204,-1.15371 3.82237,-1.40891 1.36032,-0.2552 2.63771,-0.72999 2.83863,-1.05509 0.58384,-0.94468 1.61996,-0.68315 1.61996,0.40891 0,0.55 0.28161,1 0.62581,1 0.3442,0 0.82827,1.35 1.0757,3 0.24743,1.65 0.69198,3 0.98788,3 0.2959,0 0.74648,0.975 1.00128,2.16667 0.25481,1.19166 0.77788,2.55672 1.16237,3.03346 0.93028,1.15344 -0.51823,2.52644 -3.27195,3.1014 -1.88361,0.39329 -2.12793,0.25452 -2.52302,-1.43304 -0.97142,-4.1493 -3.11097,-7.06761 -4.05807,-5.53516 -0.22662,0.36667 -0.97653,0.66667 -1.66648,0.66667 -1.15589,0 -1.17931,0.14404 -0.2981,1.83333 0.526,1.00834 0.95821,2.35834 0.96047,3 0.002,0.64167 0.30411,1.16667 0.67077,1.16667 1.67687,0 0.44096,1.94232 -1.5,2.35734 -1.19166,0.25481 -2.54179,0.76549 -3.00029,1.13485 -0.62237,0.50137 -0.93914,0.14398 -1.25,-1.41032 -0.229,-1.14503 -0.67887,-2.08187 -0.99971,-2.08187 -0.32083,0 -0.58333,-0.76901 -0.58333,-1.70891 0,-1.51655 -0.23631,-1.68539 -2.09943,-1.5 -2.61053,0.25977 -3.88907,2.00672 -2.77465,3.7912 1.6739,2.68033 1.83144,6.08438 0.28161,6.08438 -0.77414,0 -1.40753,0.3 -1.40753,0.66666 0,0.36667 -0.6,0.66667 -1.33333,0.66667 -0.74074,0 -1.33334,-0.44445 -1.33334,-1 z m -8.46848,-19.79121 c -0.38592,-0.4815 -0.9,-1.52337 -1.14241,-2.31525 -0.24241,-0.79189 -0.87912,-1.80363 -1.41492,-2.2483 -1.028,-0.85316 -1.32033,-2.02849 -0.47419,-1.90647 0.96512,0.13917 3.5,-0.89997 3.5,-1.43478 0,-0.29727 1.575,-1.3178 3.5,-2.26783 3.91102,-1.93018 6.00275,-3.15492 6.5,-3.80583 0.18334,-0.23999 0.48334,-0.47346 0.66667,-0.51883 2.78538,-0.6893 3.40538,-1.09978 3.75297,-2.48469 0.25842,-1.0296 0.0144,-2.04552 -0.67396,-2.80617 -1.51291,-1.67175 -1.40857,-1.89696 1.53855,-3.32085 2.65876,-1.28458 4.04911,-0.92969 4.04911,1.03354 0,0.47667 0.27616,0.86667 0.61369,0.86667 0.33754,0 0.81137,0.9 1.05297,2 0.2416,1.1 0.68045,2 0.97522,2 0.29477,0 0.72812,0.525 0.96301,1.16667 0.23489,0.64166 1.1457,2.36666 2.02402,3.83333 C 258.19762,89.49718 258.30542,90 257.089,90 c -0.5051,0 -1.29184,0.45 -1.7483,1 -1.40571,1.69377 -3.18137,1.2095 -3.66666,-1 -0.51859,-2.36113 -1.11914,-2.40501 -4.66667,-0.34103 -1.46667,0.85331 -4.01667,2.24827 -5.66667,3.09991 -1.65,0.85163 -3.92831,2.22928 -5.06292,3.06144 -1.13461,0.83215 -2.39471,1.51301 -2.80021,1.51301 -0.4055,0 -0.99972,0.46896 -1.32048,1.04212 -0.47463,0.84811 -0.71384,0.87914 -1.28487,0.16667 z m -5.71523,-9.71013 C 224.5247,88.13332 224.00737,87.30892 224.00737,87 c 0,-0.30893 -0.52219,-1.1387 -1.16042,-1.84394 -1.11238,-1.22915 -1.07985,-1.35156 0.78557,-2.95613 3.19208,-2.74571 0.0315,-6.1614 -3.71815,-4.01823 -2.08715,1.19296 -3.907,0.70215 -3.907,-1.0537 0,-0.3898 -0.65229,-1.40307 -1.44954,-2.2517 -1.23087,-1.3102 -1.28116,-1.54297 -0.33334,-1.54297 0.61392,0 1.11621,-0.27616 1.11621,-0.6137 0,-0.33753 0.9,-0.81137 2,-1.05297 1.1,-0.2416 2,-0.68291 2,-0.98069 0,-0.29779 0.822,-0.74774 1.82666,-0.99989 1.00466,-0.25215 1.97966,-0.65968 2.16667,-0.90561 0.187,-0.24592 3.77284,-2.1701 7.96853,-4.27594 l 7.62853,-3.8288 1.53814,1.44501 c 0.84598,0.79476 1.53814,1.74409 1.53814,2.10964 0,0.36555 0.52219,1.24164 1.16042,1.94688 1.11145,1.22814 1.08332,1.34858 -0.66666,2.85385 -1.0049,0.86438 -1.82709,1.82986 -1.82709,2.14552 0,0.31565 -0.9,1.43617 -2,2.49003 -1.1,1.05387 -2,2.28333 -2,2.73214 0,0.4488 -0.9,1.57331 -2,2.49889 -1.1,0.92559 -2,1.94613 -2,2.26787 0,0.32174 -0.9,1.44724 -2,2.5011 -1.1,1.05387 -2,2.29509 -2,2.75827 0,0.46318 -0.40601,1.08205 -0.90225,1.37527 -0.49623,0.29322 -1.0289,0.93115 -1.18371,1.41761 -0.20992,0.65964 -0.57373,0.56155 -1.43109,-0.38582 z m 7.44061,-16.42077 c 1.77119,-1.80472 2.58905,-3.09441 2.1388,-3.37268 -0.40097,-0.24781 -0.72903,-0.16785 -0.72903,0.17769 0,0.34554 -0.525,0.80454 -1.16667,1.01999 -1.49659,0.50251 -3.6938,1.90719 -4.32312,2.76378 -0.26939,0.36666 -0.49439,0.42396 -0.5,0.12732 -0.006,-0.29664 -0.32478,-0.34493 -0.70925,-0.10732 -0.83788,0.51784 0.43645,2.31333 1.64186,2.31333 0.42877,0 2.0701,-1.31495 3.64741,-2.92211 z M 60.686535,79.01257 C 57.948018,76.25566 55.391859,74 55.006181,74 c -0.902022,0 -9.665472,-8.81224 -9.665472,-9.71929 0,-0.3772 1.02426,-1.67858 2.276133,-2.89194 l 2.276132,-2.20611 2.890534,1.34768 c 8.617303,4.01772 10.356737,4.35078 6.418691,1.22902 -1.207153,-0.95693 -3.327483,-2.69707 -4.711845,-3.86698 l -2.517022,-2.12712 2.14981,-2.21804 2.149811,-2.21804 2.065616,2.00208 c 1.136089,1.10114 2.356228,2.00207 2.71142,2.00207 0.355192,0 4.055023,3.41892 8.221848,7.5976 l 7.576046,7.5976 -2.200374,2.73807 c -2.025678,2.52068 -2.311232,2.66543 -3.596698,1.82316 -0.767978,-0.5032 -2.366924,-1.12809 -3.553213,-1.38864 -1.186289,-0.26055 -2.159229,-0.67489 -2.16209,-0.92076 -0.0029,-0.24587 -0.752861,-0.7938 -1.666667,-1.21764 -3.173417,-1.47187 -2.265006,-0.0424 2.963576,4.66342 l 2.843791,2.55947 -1.651243,1.77386 c -0.908184,0.97562 -1.765557,2.15452 -1.905275,2.61977 -0.145232,0.48361 -2.386548,-1.30093 -5.233155,-4.16667 z M 210.00737,71.12472 c 0,-0.6186 -0.39771,-1.12472 -0.88379,-1.12472 -0.48609,0 -1.55165,-0.71091 -2.36792,-1.57979 l -1.48413,-1.57978 1.43523,-2.75355 c 0.78938,-1.51445 1.67242,-2.75355 1.96232,-2.75355 0.28989,0 0.73339,-0.82199 0.98554,-1.82665 0.25215,-1.00467 0.80099,-2.03835 1.21963,-2.29709 0.41865,-0.25874 0.52458,-0.70702 0.23541,-0.99619 -0.28917,-0.28917 -2.42782,1.43315 -4.75255,3.82737 -2.61064,2.68867 -4.59207,4.2141 -5.18211,3.98951 -1.87809,-0.71485 -5.51217,-4.23773 -4.66763,-4.5248 0.45833,-0.15579 0.83697,-0.63326 0.84142,-1.06104 0.004,-0.42778 2.40444,-5.53801 5.33333,-11.35608 2.92889,-5.81807 5.32525,-11.18152 5.32525,-11.91877 0,-1.25207 0.14288,-1.22289 2.16667,0.44252 1.19166,0.98065 2.69166,1.95408 3.33333,2.1632 1.40522,0.45794 1.52158,1.46367 0.22683,1.96052 -0.51691,0.19835 -1.14069,1.16093 -1.38619,2.13906 -0.24549,0.97813 -0.6634,1.93142 -0.92869,2.11843 -0.26528,0.18701 -1.20066,1.54001 -2.07862,3.00668 -0.87795,1.46666 -1.90343,2.87535 -2.27883,3.13042 -0.37541,0.25506 -0.45723,0.68907 -0.18184,0.96446 0.27539,0.27539 2.8505,-1.83531 5.72247,-4.69044 l 5.22177,-5.19114 2.34623,2.06002 c 1.29042,1.13301 2.70339,2.06001 3.13993,2.06001 0.46723,0 0.23143,0.71483 -0.57325,1.73781 -0.75183,0.9558 -2.15867,3.4308 -3.1263,5.5 -0.96764,2.06921 -2.22244,4.28903 -2.78845,4.93294 -0.56601,0.64392 -0.86132,1.33854 -0.65625,1.54361 0.35332,0.35333 3.6514,-2.97233 8.51101,-8.58218 l 2.19553,-2.53449 2.09907,2.03449 C 230.12627,51.08448 231.43156,52 231.87244,52 c 0.44088,0 0.8016,0.3 0.8016,0.66666 0,0.36667 -0.33624,0.66667 -0.74721,0.66667 -0.41096,0 -4.61096,3.63409 -9.33333,8.07575 -4.72237,4.44166 -8.58613,7.83553 -8.58613,7.54194 0,-0.2936 -0.9,0.32844 -2,1.38231 -1.56363,1.49805 -2,1.67072 -2,0.79139 z M 79.340709,68.19718 c 0,-0.37187 -1.2,-2.0394 -2.666666,-3.70562 -1.466667,-1.66622 -2.666667,-3.31196 -2.666667,-3.6572 0,-0.34524 -0.6,-1.17071 -1.333333,-1.83436 -0.733334,-0.66366 -1.346038,-1.53516 -1.361565,-1.93666 -0.01553,-0.40151 -0.915527,-1.46594 -2,-2.3654 -1.084473,-0.89947 -1.971769,-1.90986 -1.971769,-2.24532 0,-0.33547 -0.9,-1.63498 -2,-2.88781 -2.49767,-2.84469 -2.457748,-3.43767 0.390839,-5.80533 2.24108,-1.86272 4.275828,-1.68437 4.275828,0.37478 0,0.35072 1.5,2.36227 3.333333,4.47009 1.833334,2.10783 3.333334,4.06841 3.333334,4.35684 0,0.28843 1.563141,2.32878 3.473647,4.53411 5.132576,5.92461 6.086069,10.73051 1.859686,9.37341 -0.183333,-0.0589 -0.858333,0.36808 -1.5,0.94879 -0.641667,0.5807 -1.166667,0.75155 -1.166667,0.37968 z m 6.40466,-6.58504 C 85.522806,61.03215 85.340709,59.98215 85.340709,59.27881 85.340709,58.57546 85.059091,58 84.714891,58 84.370691,58 83.882848,56.575 83.630795,54.83333 83.378742,53.09166 82.945002,51.36666 82.666928,51 82.388854,50.63333 81.942056,49.28333 81.674043,48 81.406029,46.71666 80.949463,45.36666 80.659452,45 80.36944,44.63333 79.920019,42.90833 79.660738,41.16666 79.401457,39.425 78.902515,38 78.55198,38 c -1.141273,0 -0.24771,-2.84448 1.122063,-3.57187 0.733333,-0.38942 2.128727,-1.23215 3.100875,-1.87273 l 1.767542,-1.1647 6.065791,6.57362 c 3.336185,3.61549 6.065792,6.85906 6.065792,7.20794 0,0.34888 1.6157,2.16239 3.590437,4.03002 3.94421,3.73027 3.91601,4.07015 -0.52899,6.37625 -1.969014,1.02154 -4.394781,-0.55176 -4.394781,-2.85035 0,-1.03915 -1.027938,-0.89945 -2,0.27182 -0.456459,0.55 -1.243193,1 -1.748296,1 -1.193904,0 -1.165417,1.37407 0.07789,3.75713 0.883906,1.69418 0.883906,1.93384 0,2.12508 -0.547944,0.11856 -0.996262,0.54356 -0.996262,0.94445 0,0.40089 -0.189409,0.53948 -0.420908,0.30799 -0.231499,-0.2315 -1.048251,0.0185 -1.815004,0.55555 -1.768285,1.23856 -2.192246,1.22626 -2.692762,-0.0781 z m 4.84469,-13.17761 c 0.570475,-0.68738 0.41486,-1.19705 -0.661546,-2.16667 C 89.154395,45.57054 88.262879,44.325 87.947368,43.5 c -0.827753,-2.16441 -2.058909,-1.89676 -1.533288,0.33333 0.237659,1.00833 0.693375,2.11833 1.012702,2.46667 0.319326,0.34833 0.580594,1.17333 0.580594,1.83333 0,1.41051 1.515369,1.58723 2.582683,0.3012 z m 98.750641,8.30989 c 0,-0.57198 -2.49293,-1.62841 -3.5,-1.48319 -0.275,0.0396 -0.5,-0.2279 -0.5,-0.59457 C 185.3407,54.3 184.83542,54 184.21785,54 c -6.28947,0 -7.69505,-3.55295 -4.16165,-10.5196 1.06385,-2.09756 1.93808,-4.1465 1.94273,-4.55322 0.005,-0.40672 0.90844,-2.42605 2.00844,-4.48741 1.1,-2.06135 2,-4.35358 2,-5.09384 0,-0.74026 0.26501,-1.34593 0.58891,-1.34593 0.3239,0 0.75553,-0.63714 0.95917,-1.41586 0.36935,-1.4124 3.52009,-1.38013 4.44524,0.0455 0.18701,0.28818 1.09001,0.73887 2.00668,1.00154 5.85002,1.67632 11.19587,6.3688 7.25558,6.3688 -0.3239,0 -0.58891,0.43229 -0.58891,0.96065 0,1.68757 -1.29443,1.8388 -3.59085,0.41954 -2.52265,-1.55909 -4.43269,-1.75666 -5.60915,-0.58019 -1.94775,1.94774 -0.28832,3.69771 4.63184,4.88454 1.67836,0.40485 1.71955,0.51324 0.83744,2.20395 -0.51025,0.978 -0.92958,2.30317 -0.93184,2.94484 -0.006,1.57254 -1.23802,1.46841 -4.75538,-0.40179 -3.33,-1.77058 -4.56395,-1.2452 -4.79244,2.04049 -0.12704,1.82676 0.23009,2.11441 5.54371,4.46528 1.28333,0.56778 1.99086,1.03916 1.57227,1.0475 -0.41858,0.008 -0.95839,0.80142 -1.19958,1.76238 -0.59247,2.36059 -3.03936,4.77355 -3.03936,2.99723 z m -83.56197,-11.8509 c -0.24091,-6.10856 -0.43803,-13.39856 -0.43803,-16.2 0,-2.80143 -0.32263,-5.41615 -0.71695,-5.81047 -0.51149,-0.5115 -0.14617,-0.80073 1.27481,-1.00929 2.53502,-0.37206 2.77548,0.65345 2.77548,11.83689 0,4.75465 0.28061,8.38409 0.66666,8.62268 1.25276,0.77425 0.82256,11.73467 -0.5,12.73864 -2.41781,1.83538 -2.61386,1.18368 -3.06197,-10.17845 z m 58.06197,3.29564 c -1.00833,-0.15275 -1.83333,-0.5578 -1.83333,-0.90011 0,-0.34231 -0.42978,-0.62239 -0.95507,-0.62239 -0.5253,0 -1.14551,-0.6 -1.37826,-1.33333 C 159.44129,44.6 158.97107,44 158.62911,44 c -0.79058,0 -0.82195,-6.46424 -0.0337,-6.95139 0.3234,-0.19987 0.80292,-2.39258 1.06558,-4.87268 0.26267,-2.48009 0.74804,-4.83997 1.07859,-5.24416 0.33056,-0.40419 0.79379,-2.57919 1.02939,-4.83333 0.41858,-4.00475 1.90851,-5.58363 3.23843,-3.43177 0.22661,0.36666 1.44432,0.66666 2.70601,0.66666 2.16037,0 3.01401,0.80965 1.70598,1.61806 -0.3234,0.19987 -0.79728,2.31758 -1.05306,4.70601 -0.25578,2.38843 -0.71073,4.3426 -1.011,4.3426 -0.30027,0 -0.76233,2.175 -1.02681,4.83333 -0.26448,2.65833 -0.81992,5.04979 -1.23433,5.31436 -0.55342,0.35332 -0.5575,0.79579 -0.0153,1.66666 1.83928,2.95444 3.75996,0.83246 4.65937,-5.14769 0.24816,-1.65 0.67682,-3.3 0.95259,-3.66666 0.27577,-0.36667 0.71427,-2.54167 0.97445,-4.83333 C 171.92547,25.875 172.40889,24 172.73955,24 c 0.33067,0 0.6249,-0.975 0.65384,-2.16667 0.0289,-1.19166 0.20395,-1.79166 0.38889,-1.33333 0.18495,0.45833 0.98626,0.83743 1.78071,0.84244 3.25805,0.0205 4.44444,0.75069 4.44444,2.73531 0,1.05724 -0.26125,1.92225 -0.58056,1.92225 -0.3193,0 -0.79235,1.87203 -1.05121,4.16007 -0.25886,2.28803 -0.70617,4.46303 -0.99401,4.83333 -0.28785,0.37029 -0.70816,2.09171 -0.93404,3.82536 -0.22587,1.73365 -0.76394,3.83365 -1.19571,4.66666 -0.43177,0.83302 -0.99286,1.96458 -1.24686,2.51458 -1.03551,2.24223 -4.66033,3.02294 -10.16428,2.18916 z m -42.5,-3.10753 c 0,-1.6949 -0.26416,-3.08163 -0.58703,-3.08163 -0.32287,0 -0.80369,-3.225 -1.06849,-7.16667 -0.26481,-3.94166 -0.7198,-7.46666 -1.0111,-7.83333 -0.2913,-0.36667 -0.63548,-2.24185 -0.76484,-4.16708 l -0.2352,-3.50042 2.16666,4.2e-4 c 1.19167,2.3e-4 2.16667,-0.29959 2.16667,-0.66625 0,-0.38519 2.11111,-0.66667 5,-0.66667 2.88889,0 5,0.28148 5,0.66667 0,0.36666 0.47809,0.66666 1.06241,0.66666 0.58433,0 1.21932,0.6 1.41109,1.33334 C 134.67264,21.4 135.09456,22 135.41846,22 c 0.76256,0 0.77244,5.81839 0.0104,6.11111 -1.38543,0.53215 -1.46446,3.05547 -0.10682,3.4105 0.74361,0.19446 1.35203,0.83165 1.35203,1.41598 0,0.58432 0.3,1.06241 0.66666,1.06241 6.65811,0 -1.86921,11.69368 -9,12.34188 -2.93333,0.26665 -5.70833,0.78554 -6.16666,1.15309 -0.64287,0.51554 -0.83334,-0.0361 -0.83334,-2.41334 z m 9.86366,-8.39299 c -0.15012,-1.28683 -0.63413,-1.73892 -2.03411,-1.89996 -2.16209,-0.24869 -3.1237,1.38679 -1.93476,3.29058 0.42453,0.67979 0.77188,1.74234 0.77188,2.36123 0,0.93307 0.28983,0.85297 1.69699,-0.46898 1.12814,-1.05983 1.63095,-2.16028 1.5,-3.28287 z m -2.81604,-8.30769 C 130.05392,26.71536 129.61119,24 127.67404,24 c -1.5,0 -1.66667,0.26667 -1.66667,2.66667 0,2.78072 0.76425,3.33098 2.38095,1.71428 z m 16.58025,16.8896 c -0.24795,-0.40119 -1.09066,-0.60674 -1.87268,-0.45678 -1.41523,0.2714 -1.42101,0.21505 -1.24126,-12.10388 0.21585,-14.79247 0.4032,-15.37656 4.93206,-15.37656 h 3.22068 v 6.33334 c 0,3.96226 -0.26099,6.33333 -0.69713,6.33333 -0.43567,0 -0.62319,1.68769 -0.5,4.5 l 0.19713,4.5 3.83333,0.19993 3.83334,0.19994 V 42.69993 46 h -5.62733 c -3.35529,0 -5.80934,-0.29452 -6.07814,-0.72945 z" id="path1"></path>
  </g>
</svg></svg></g></g></svg>